<?xml version="1.0" encoding="UTF-8"?>
<!DOCTYPE svg PUBLIC "-//W3C//DTD SVG 1.1//EN" "http://www.w3.org/Graphics/SVG/1.1/DTD/svg11.dtd">
<!-- Creator: CorelDRAW (Versão OEM) -->
<svg xmlns="http://www.w3.org/2000/svg" xml:space="preserve" width="147.683mm" height="199.664mm" version="1.1" style="shape-rendering:geometricPrecision; text-rendering:geometricPrecision; image-rendering:optimizeQuality; fill-rule:evenodd; clip-rule:evenodd"
viewBox="0 0 504.79 682.46"
 xmlns:xlink="http://www.w3.org/1999/xlink"
 xmlns:xodm="http://www.corel.com/coreldraw/odm/2003">
 <defs>
  <style type="text/css">
   <![CDATA[
    .str0 {stroke:#ED3237;stroke-width:0.68;stroke-miterlimit:22.9256}
    .str1 {stroke:#A8CF45;stroke-width:0.68;stroke-miterlimit:22.9256}
    .fil0 {fill:#FEFEFE}
   ]]>
  </style>
 </defs>
 <g id="Camada_x0020_1">
  <metadata id="CorelCorpID_0Corel-Layer"/>
  <path class="fil0" d="M83.88 0.34c46.14,0 83.54,37.58 83.54,83.92 0,46.35 -37.4,83.93 -83.54,83.93 -46.14,0 -83.54,-37.57 -83.54,-83.93 0,-46.35 37.4,-83.92 83.54,-83.92l0 0z"/>
  <path class="fil0 str0" d="M83.88 0.34c46.14,0 83.54,37.58 83.54,83.92 0,46.35 -37.4,83.93 -83.54,83.93 -46.14,0 -83.54,-37.57 -83.54,-83.93 0,-46.35 37.4,-83.92 83.54,-83.92l0 0z"/>
  <path class="fil0" d="M199.89 7.61l115.99 0c9.46,0 17.19,8.96 17.19,19.93l0 113.46c0,10.96 -7.73,19.93 -17.19,19.93l-115.99 0c-9.46,0 -17.19,-8.97 -17.19,-19.93l0 -113.46c0,-10.96 7.73,-19.93 17.19,-19.93l0 0z"/>
  <path class="fil0 str1" d="M199.89 7.61l115.99 0c9.46,0 17.19,8.96 17.19,19.93l0 113.46c0,10.96 -7.73,19.93 -17.19,19.93l-115.99 0c-9.46,0 -17.19,-8.97 -17.19,-19.93l0 -113.46c0,-10.96 7.73,-19.93 17.19,-19.93l0 0z"/>
  <path class="fil0" d="M23.15 181.28l115.99 0c9.46,0 17.19,8.97 17.19,19.93l0 113.46c0,10.97 -7.73,19.93 -17.19,19.93l-115.99 0c-9.45,0 -17.19,-8.97 -17.19,-19.93l0 -113.46c0,-10.96 7.73,-19.93 17.19,-19.93l0 0z"/>
  <path class="fil0 str1" d="M23.15 181.28l115.99 0c9.46,0 17.19,8.97 17.19,19.93l0 113.46c0,10.97 -7.73,19.93 -17.19,19.93l-115.99 0c-9.45,0 -17.19,-8.97 -17.19,-19.93l0 -113.46c0,-10.96 7.73,-19.93 17.19,-19.93l0 0z"/>
  <path class="fil0" d="M26.14 528.8l115.99 0c9.45,0 17.19,8.97 17.19,19.93l0 113.46c0,10.96 -7.73,19.93 -17.19,19.93l-115.99 0c-9.46,0 -17.19,-8.97 -17.19,-19.93l0 -113.46c0,-10.96 7.73,-19.93 17.19,-19.93l0 0z"/>
  <path class="fil0 str1" d="M26.14 528.8l115.99 0c9.45,0 17.19,8.97 17.19,19.93l0 113.46c0,10.96 -7.73,19.93 -17.19,19.93l-115.99 0c-9.46,0 -17.19,-8.97 -17.19,-19.93l0 -113.46c0,-10.96 7.73,-19.93 17.19,-19.93l0 0z"/>
  <path class="fil0" d="M25.84 357.24l115.99 0c9.45,0 17.19,8.97 17.19,19.93l0 113.46c0,10.96 -7.73,19.93 -17.19,19.93l-115.99 0c-9.46,0 -17.19,-8.97 -17.19,-19.93l0 -113.46c0,-10.96 7.73,-19.93 17.19,-19.93l0 0z"/>
  <path class="fil0 str1" d="M25.84 357.24l115.99 0c9.45,0 17.19,8.97 17.19,19.93l0 113.46c0,10.96 -7.73,19.93 -17.19,19.93l-115.99 0c-9.46,0 -17.19,-8.97 -17.19,-19.93l0 -113.46c0,-10.96 7.73,-19.93 17.19,-19.93l0 0z"/>
  <path class="fil0" d="M368.26 7.61l118.61 0c9.67,0 17.57,8.96 17.57,19.93l0 113.46c0,10.96 -7.9,19.93 -17.57,19.93l-118.61 0c-9.67,0 -17.58,-8.97 -17.58,-19.93l0 -113.46c0,-10.96 7.91,-19.93 17.58,-19.93l0 0z"/>
  <path class="fil0 str1" d="M368.26 7.61l118.61 0c9.67,0 17.57,8.96 17.57,19.93l0 113.46c0,10.96 -7.9,19.93 -17.57,19.93l-118.61 0c-9.67,0 -17.58,-8.97 -17.58,-19.93l0 -113.46c0,-10.96 7.91,-19.93 17.58,-19.93l0 0z"/>
  <path class="fil0" d="M191.52 181.28l118.61 0c9.67,0 17.58,8.97 17.58,19.93l0 113.46c0,10.97 -7.91,19.93 -17.58,19.93l-118.61 0c-9.67,0 -17.57,-8.97 -17.57,-19.93l0 -113.46c0,-10.96 7.9,-19.93 17.57,-19.93l0 0z"/>
  <path class="fil0 str1" d="M191.52 181.28l118.61 0c9.67,0 17.58,8.97 17.58,19.93l0 113.46c0,10.97 -7.91,19.93 -17.58,19.93l-118.61 0c-9.67,0 -17.57,-8.97 -17.57,-19.93l0 -113.46c0,-10.96 7.9,-19.93 17.57,-19.93l0 0z"/>
  <path class="fil0" d="M194.51 528.8l118.61 0c9.67,0 17.57,8.97 17.57,19.93l0 113.46c0,10.96 -7.91,19.93 -17.57,19.93l-118.61 0c-9.67,0 -17.58,-8.97 -17.58,-19.93l0 -113.46c0,-10.96 7.91,-19.93 17.58,-19.93l0 0z"/>
  <path class="fil0 str1" d="M194.51 528.8l118.61 0c9.67,0 17.57,8.97 17.57,19.93l0 113.46c0,10.96 -7.91,19.93 -17.57,19.93l-118.61 0c-9.67,0 -17.58,-8.97 -17.58,-19.93l0 -113.46c0,-10.96 7.91,-19.93 17.58,-19.93l0 0z"/>
  <path class="fil0" d="M194.21 357.24l118.61 0c9.67,0 17.57,8.97 17.57,19.93l0 113.46c0,10.96 -7.9,19.93 -17.57,19.93l-118.61 0c-9.67,0 -17.58,-8.97 -17.58,-19.93l0 -113.46c0,-10.96 7.91,-19.93 17.58,-19.93l0 0z"/>
  <path class="fil0 str1" d="M194.21 357.24l118.61 0c9.67,0 17.57,8.97 17.57,19.93l0 113.46c0,10.96 -7.9,19.93 -17.57,19.93l-118.61 0c-9.67,0 -17.58,-8.97 -17.58,-19.93l0 -113.46c0,-10.96 7.91,-19.93 17.58,-19.93l0 0z"/>
  <path class="fil0" d="M367.63 357.24l118.61 0c9.67,0 17.57,8.97 17.57,19.93l0 113.46c0,10.96 -7.9,19.93 -17.57,19.93l-118.61 0c-9.67,0 -17.57,-8.97 -17.57,-19.93l0 -113.46c0,-10.96 7.91,-19.93 17.57,-19.93l0 0z"/>
  <path class="fil0 str1" d="M367.63 357.24l118.61 0c9.67,0 17.57,8.97 17.57,19.93l0 113.46c0,10.96 -7.9,19.93 -17.57,19.93l-118.61 0c-9.67,0 -17.57,-8.97 -17.57,-19.93l0 -113.46c0,-10.96 7.91,-19.93 17.57,-19.93l0 0z"/>
 </g>
</svg>
