<?xml version="1.0" encoding="UTF-8"?>
<!DOCTYPE svg PUBLIC "-//W3C//DTD SVG 1.1//EN" "http://www.w3.org/Graphics/SVG/1.1/DTD/svg11.dtd">
<!-- Creator: CorelDRAW -->
<svg xmlns="http://www.w3.org/2000/svg" xml:space="preserve" width="619.058mm" height="193.314mm" version="1.1" style="shape-rendering:geometricPrecision; text-rendering:geometricPrecision; image-rendering:optimizeQuality; fill-rule:evenodd; clip-rule:evenodd"
viewBox="0 0 61894.06 19327.7"
 xmlns:xlink="http://www.w3.org/1999/xlink"
 xmlns:xodm="http://www.corel.com/coreldraw/odm/2003">
 <defs>
  <style type="text/css">
   <![CDATA[
    .fil0 {fill:white;fill-rule:nonzero}
   ]]>
  </style>
 </defs>
 <g id="Camada_x0020_1">
  <metadata id="CorelCorpID_0Corel-Layer"/>
  <g id="_1516849717920">
   <path class="fil0" d="M57358.23 9363.24l893.56 -2469.75 894.68 2469.75 -1788.24 0zm-6927.32 805.88c0,504.02 -566.98,819.02 -1436.38,819.02 -919.8,0 -1474.19,-428.4 -1612.8,-1285.17l-1650.59 0c38.84,498.2 169.94,936.9 377.02,1310.35l-3678.17 0 0 -1889.96 3338.97 0 0 -1385.98 -3338.97 0 0 -1889.97 3614.93 0c-113.37,268.77 -175.2,571.74 -175.2,907.18 0,2973.56 4561.19,1915.18 4561.19,3414.52zm-9512.93 -1675.73l-3589.43 0 0 1386.02 1978.17 0c-377.97,768.55 -1209.59,1108.74 -2091.57,1108.74 -1335.55,0 -2431.73,-1008.01 -2431.73,-2570.38 0,-1562.4 1096.18,-2545.16 2431.73,-2545.16 1134.03,0 1927.77,592.17 2267.96,1587.59l1434.87 0 0 1033.19zm-10924.24 869.37l894.59 -2469.58 894.61 2469.58 -1789.2 0zm29014.39 -4901.59l-1511.57 0 -2668.22 7338.89 0 -5952.63 1665.64 0 526.7 -1386.01 -5896.72 0 0 825.58c-522.58,-599.43 -1343.7,-926.39 -2343.67,-926.39 -1166.87,0 -2168.5,448.75 -2633.34,1279l0 -1178.19 -5228.97 0 0 2202.36c-553.79,-1433.85 -1899.35,-2303.17 -3702.83,-2303.17 -2204.94,0 -4006.76,1700.99 -4006.76,4069.79 0,128.82 6.31,255.26 16.75,379.98l-1580.81 -4348.96 -1512 0 -2532.57 6967.31 0 -6967.31 -1512.03 0 -2293.16 5669.96 -2293.15 -5669.96 -1512 0 0 7937.93 1512 0 0 -3792.56 1537.15 3792.56 1512 0 1537.15 -3792.56 0 3792.56 1159.22 0 352.81 0 1285.14 0 604.84 -1650.62 2797.17 0 604.8 1650.62 1637.99 0 -555.31 -1527.7c729.83,1009.78 1911.7,1628.46 3240.79,1628.46 1590.69,0 3125.65,-753.74 3702.83,-2259.92l0 2159.16 5354.92 0 0 -1125.26c564.65,792.75 1517.93,1226.02 2658.6,1226.02 1738.79,0 3074.37,-907.17 3074.37,-2330.99 0,-2986.16 -4561.12,-2041.17 -4561.12,-3527.92 0,-428.41 466.18,-768.59 1310.36,-768.59 705.6,0 1196.99,289.79 1335.61,1058.38l1650.58 0c-18.84,-404.77 -106.52,-767.28 -253.7,-1083.56l1828.73 0 0 6551.93 1512 0 0 -0.5 1420.9 0 604.37 -1649.91 2797.49 0 604.41 1649.91 1638.56 0 -2885.92 -7937.68z"/>
   <polygon class="fil0" points="59001.5,4038.33 59001.5,3952.73 58529.58,3202.37 56906.9,3202.37 56906.9,3287.98 57464.42,4038.33 "/>
   <path class="fil0" d="M30149.13 15736.02l-238.18 0 0 -1109.56 238.18 0c343.68,0 522.26,211.09 522.26,552.06 0,341.01 -178.58,557.5 -522.26,557.5zm0 -1407.21l-562.85 0 0 1704.86 562.85 0c530.41,0 860.55,-354.5 860.55,-852.43 0,-497.96 -330.14,-852.43 -860.55,-852.43z"/>
   <polygon class="fil0" points="33554.69,16033.67 33879.36,16033.67 33879.36,14328.8 33554.69,14328.8 "/>
   <path class="fil0" d="M37308.88 15492.44l424.85 0c-81.16,165.07 -259.78,238.15 -449.18,238.15 -286.9,0 -522.33,-216.5 -522.33,-552.11 0,-335.53 235.44,-546.6 522.33,-546.6 243.48,0 414.01,127.2 487.06,340.97l354.51 0c-67.65,-408.61 -386.96,-665.7 -841.57,-665.7 -473.58,0 -860.54,365.34 -860.54,874.05 0,508.78 386.96,874.12 860.54,874.12 432.96,0 847,-259.81 847,-779.38l0 -81.16 -822.66 0 0 297.65z"/>
   <polygon class="fil0" points="40654.97,16033.67 40979.64,16033.67 40979.64,14328.8 40654.97,14328.8 "/>
   <polygon class="fil0" points="43524.29,14626.47 43995.19,14626.47 43995.19,16033.68 44319.93,16033.68 44319.93,14626.47 44790.8,14626.47 44790.8,14328.82 43524.29,14328.82 "/>
   <path class="fil0" d="M47627.84 15381.48l192.12 -530.37 192.19 530.37 -384.32 0zm29.76 -1052.66l-619.71 1704.86 351.79 0 129.91 -354.54 600.74 0 129.91 354.54 351.83 0 -619.71 -1704.86 -324.75 0z"/>
   <polygon class="fil0" points="51471.82,14328.81 51147.11,14328.81 51147.11,16033.67 52297.19,16033.67 52297.19,15736.03 51471.82,15736.03 "/>
   <path class="fil0" d="M5893.44 10040.26c635.62,343.12 1216.99,1350.81 796.49,2491.34 1172.38,-993.97 662.64,-2650.62 -796.49,-2491.34z"/>
   <path class="fil0" d="M9407.6 9447c-1039.19,3084.6 -3217.11,3800.21 -3913.61,5801.25 -684.4,1966.26 60,3649.96 1702.54,4079.46 -584.73,-858.89 -797.02,-1838.4 -652.31,-2885.49 375.92,-2719.61 2940.76,-3910.62 2863.38,-6995.21z"/>
   <path class="fil0" d="M5441.28 7361.5c-411.33,-9.74 -837.59,88 -1288.07,359.16l-132.55 -93.85 2305.07 -1426.23c-287.08,447.03 -581.02,840.44 -884.45,1160.92zm-622.75 -1388.52c-432.99,273.03 -976.58,676.21 -1188.42,950.8 -139.17,180.17 -309.57,641.23 -414.64,972.89l-3215.46 2125.79c207.68,336.66 1262.25,265.27 1896.03,-62.64l154.81 51.6c-155.41,304.42 -355.6,577.17 -637.53,792.29 -401.73,33.12 -692.83,198.93 -781.25,420.08 312.01,419.51 671.31,754.45 1098.13,969.15 349,-55.73 653.43,-27.23 917.58,77.42 -399.58,121.51 -760.48,287.5 -1028.09,560.24 -374.08,897.19 211.84,2174.22 1444.57,2588.69 111.81,-766.89 547.23,-1365.27 1376.35,-1569.81 -19.51,182.61 10.16,307 60.91,406.32 304,-456.05 736.25,-566.34 1028.36,-990.23 717.59,-1041.31 -65.07,-2096.37 -1161.09,-1710.12 856.81,-646.67 1049.28,-1505.19 409.04,-2111.58 853.35,-86.16 1622.15,-61.65 2360.41,3.14 1091.57,-531.89 1884.85,-1274.45 2200,-2208.6 809.93,397.15 1398.42,950.8 1824.07,1619.54 -81.12,-873.42 -350.41,-1636.9 -801.47,-2294.03 1652.81,989.49 2150.3,4073.96 149.2,6229.69 190.35,-1098.41 154.8,-2077.9 -213.67,-2881.65 -59.05,3467.71 -3375.55,5148.03 -2424.89,7690.9 1260.38,-2288.46 4427.68,-2653.38 5072.94,-6622.29 453.19,-2787.79 -1092.98,-5383.95 -3702.06,-6378.88 172.55,-58.2 351.86,-102.5 538.91,-130.86 325.48,-313.17 693.4,-531.75 1114.5,-632.94 175.54,209.97 295.21,454.92 378.63,722.49 125.54,30.97 253.99,67.97 385.41,111.25 -98.89,-472.42 -298.7,-875.99 -607.99,-1205.07 -827.11,79.53 -1505.16,335.96 -2048.94,751.73 417.93,-1315.15 1488.83,-2082.05 2682.72,-2288.46 -386.82,152.51 -730.64,453.62 -1053.83,825.55 165.07,-31.24 346.4,-56.04 545.33,-73.68 295.25,208.1 543.18,444.31 748,706.02 1730.22,360.01 2938.15,1270.71 3623.96,2731.89 -723.66,-764.92 -1697.11,-1262.81 -2987.32,-1422.2 37.85,143.3 68.82,290.94 93.19,442.3 437.11,305.69 707.43,738.4 913.8,1219.67 -382.94,-232.33 -781.81,-400.99 -1205.03,-471.67 1280.59,1326.61 1726.73,2964.81 1727.04,4411.21 0.85,2918.51 -1375.04,3515.6 -1889.15,5207.1 1087.51,-1133.69 2287.86,-1852.47 3168.02,-3095.78 703.59,-993.65 1392.4,-2443.12 1276.28,-4466.27 205.98,162.25 464.24,307.74 765.52,439.59 -623.63,-1516.51 -822.69,-2997.9 -1834.69,-4406.06 -772.22,-1074.22 -1722.6,-1947.46 -3087.35,-2582.12 -905.06,-420.93 -2143.24,-671.46 -3421.96,-629.03 230.04,-281.36 501.34,-538.2 836.56,-757.34 -1829.83,-112.38 -4326.36,830.7 -5345.41,2706.67 -254.09,-363.89 -386.4,-735.97 -389.72,-1116.47 -873.37,726.79 -1103.13,2269.37 -630.15,3380.13 -456.51,-64.37 -853.67,-280.48 -1187.29,-659.14 106.77,843.9 917.55,1547.77 1779.78,1271.42 -322.77,-557.53 -353.73,-1241.89 -132.58,-1772.48 155.51,545.47 391.86,943.65 773.81,1075.95 579.89,-1137.42 1603.07,-1971.58 2741.8,-2170.51 -738.86,456.93 -995.11,1163.95 -871.55,1574.99 165.81,551.36 1227.12,413.2 1956.77,1081.94 -1752.27,-326.05 -2730.58,-70.94 -3780.88,591.5z"/>
  </g>
 </g>
</svg>
