<?xml version="1.0" encoding="UTF-8"?>
<!DOCTYPE svg PUBLIC "-//W3C//DTD SVG 1.1//EN" "http://www.w3.org/Graphics/SVG/1.1/DTD/svg11.dtd">
<!-- Creator: CorelDRAW (Versão OEM) -->
<svg xmlns="http://www.w3.org/2000/svg" xml:space="preserve" width="71.5852mm" height="77.6214mm" version="1.1" style="shape-rendering:geometricPrecision; text-rendering:geometricPrecision; image-rendering:optimizeQuality; fill-rule:evenodd; clip-rule:evenodd"
viewBox="0 0 1364.78 1479.86"
 xmlns:xlink="http://www.w3.org/1999/xlink"
 xmlns:xodm="http://www.corel.com/coreldraw/odm/2003">
 <defs>
  <style type="text/css">
   <![CDATA[
    .fil2 {fill:#FCFCFC}
    .fil1 {fill:#FDFDFD}
    .fil0 {fill:#FEFEFE}
   ]]>
  </style>
 </defs>
 <g id="Camada_x0020_1">
  <metadata id="CorelCorpID_0Corel-Layer"/>
  <g id="_1585078739456">
   <path class="fil0" d="M134.24 1376.88l3.16 -39.72c5.7,5.85 8.6,12.28 13.63,18.29 5.46,6.52 9.16,11.25 14.63,17.64 22.11,25.8 84.55,71.3 114.38,78.04 -5.36,-4.47 -20.21,-20.58 -23.39,-28.77 11.21,4.36 22.72,12.75 34.88,18.56 12.37,5.91 22.6,10.54 35.67,15.98 23.88,9.93 53.82,18.21 81.71,21.44 66.18,7.66 126.63,-13.93 141.06,-65.65 -4.46,2.75 -10.1,9.23 -15.08,13.91 -4.52,4.25 -9.54,7.58 -16.14,11.32 -35.99,20.36 -77.74,14.06 -112.92,-4.74l-14.58 -8.26c-0.29,-0.22 -0.79,-0.64 -1.02,-0.82 -0.24,-0.19 -0.85,-0.29 -1.02,-0.88 -0.18,-0.6 -0.7,-0.59 -1.03,-0.91 47.46,4.49 79.39,11.07 123.52,-7.61 38.09,-16.13 55.7,-45.96 52.53,-86.93 -7.03,2.59 -10.48,13.62 -35.06,26.98 -49.01,26.65 -111.64,10.26 -132.86,-25.82 22.53,7.33 23.85,13.23 58.74,13.35 21.33,0.08 42.91,-3.48 59.57,-11.83 28.8,-14.43 59.24,-49.44 50.31,-87.06 -10.39,-43.75 -55.62,-40.07 -101.03,-33.19 -33.48,5.07 -97.79,2.21 -117.35,-18.05 27.76,0.09 51.64,-2.88 70.18,-17.63 14.4,-11.45 29.71,-28.82 33.16,-54.16 -5.57,1.66 -18.04,9.02 -23.59,12.13 -13.28,7.46 -34.05,21.21 -49.35,18.15 -10.21,-2.04 -15.58,-7.16 -18.71,-15.28 -7.56,-19.62 5.2,-42.8 14.7,-51.42 11.45,-10.39 28.52,-18.32 48.43,-21.23 -10.6,-12.62 -38.19,-26.9 -63.06,-25.59 -27.43,1.44 -44.68,17.95 -55.86,31.26 -27.75,33.04 -39.28,77.86 -85.22,91.27 5.01,-11.15 14.06,-22.62 20.04,-35.4 4.47,-9.55 13.27,-27.22 15.73,-37.29 -9.78,-8.11 -30.05,-11.85 -44.92,-12.82 -20.19,-1.32 -35.59,3.18 -52.68,3.05 3.73,-5.09 14.42,-11.45 20.91,-15.55 30.77,-19.42 59.12,-14.71 88.27,-6.07 5.35,-4.28 8.38,-6.74 12.47,-14.27 13.72,-25.23 -1.23,-43.78 -10.91,-60.56 6.45,2.67 18.13,12.25 23.63,18.04 7.28,7.67 10.22,15.67 16.78,25.56 14.1,-4.6 16.27,-12.01 46.98,-16.58l-3.3 -64.59c-6.23,9.03 -9.7,29.55 -13.96,41.53 -4.74,-14.01 -5.33,-28.33 -11.16,-42.19 -13.18,-31.31 -16.69,-30.16 -31.01,-49.7 -4.51,-6.15 -7.17,-8.08 -12.68,-13.13 -8.07,-7.4 -18.22,-16.08 -28.38,-23.25 -15.42,-10.89 -24.51,-18.66 -33.71,-13.37 -12.36,7.11 -22.17,12.22 -33.4,19.96 -18.12,12.5 -42.87,31.71 -56.48,48.04 23.71,-4.04 42.69,-16.51 82.54,-19.71l-6.58 5.72c-57.46,39.32 -119.53,88.87 -153.35,152.17 13.58,-5.74 28.43,-15.01 46.42,-14.13 -4.28,7.75 -40.92,40.17 -59.4,84.54 -14.49,34.77 -24.29,80.24 -14.58,121.98 9.1,-15.68 14.81,-43.35 30.79,-50.15 -3.89,48.27 -0.62,72.93 18.52,111.99 12.34,25.18 42.14,61.17 60.42,73.38z"/>
   <path class="fil0" d="M867.98 1310.72c13.89,-3.32 36.21,-5.12 51.74,-7.61 42.44,-6.8 104.28,-21.33 143.22,-34.37 158.37,-53.05 250.5,-133.81 287.89,-304.41 4.87,-22.24 15.85,-80.65 13.66,-102.6 0.27,28.79 -39.05,154.79 -55.28,188.43 -15.64,32.43 -28.23,52.17 -49.52,73.13 -25.28,24.89 -33.57,33.56 -65.29,55.75 -40.88,28.59 -103.98,68.09 -165.27,80.1 -44.21,8.66 -181.09,26.31 -221.8,20.92 103.94,-27.31 221.68,-36.92 314.58,-100.89l33.03 -23.68c-51.9,15.61 -82.75,40.34 -154.69,53.71 -60.16,11.19 -121.38,16.38 -180.95,28.89 -98.59,20.72 -150.3,38.54 -200.09,114.7 -10.38,15.87 -26.36,53.26 -28.87,75.73 18.49,-7.53 30.31,-16.17 52.65,-21.12 68.07,-15.08 124.34,4.94 191.27,12.06 95.13,10.12 166.34,-2.92 245.41,-35.56 62.3,-25.72 126.2,-67.11 170.27,-117.01 18.31,-20.74 43.78,-54.75 58.08,-85.53 13.3,-28.61 32.12,-74.83 33.2,-111.13 -8.22,11.32 -13.3,40.7 -50.22,86.01 -29.78,36.55 -79.73,76.74 -122.17,98.92 -41.89,21.89 -84.89,33.8 -136.44,42.67 -44.69,7.69 -118.9,16.05 -164.44,12.88z"/>
   <path class="fil0" d="M1104.66 1046.72l62.65 -253.15c17.57,-4.1 36.15,-6.97 54.06,-10.25 20.97,-3.84 44.05,-7.58 38.59,20.71 -6.53,33.82 -17.72,71.86 -26.21,106.17 -5.93,23.96 -19,87.72 -29.64,102.65 -9.13,12.81 -21.67,19.04 -43.15,23.11 -18.05,3.42 -38.01,8.41 -56.3,10.76zm-119.77 111.01c16.41,-1.66 41.22,-9.5 58.51,-13.5 19.07,-4.41 38.41,-8.92 57.29,-13.7 85.68,-21.67 140.12,-16.43 185.79,-101.48 22.77,-42.4 47.74,-173.18 59.88,-227.46 6.74,-30.16 21.12,-94.42 -21.12,-106.91 -27.05,-8 -93.8,8.41 -123.27,14.08 -48.52,9.33 -22.23,5.18 -57.11,15.64 -20.43,6.12 -41.03,6.42 -59.47,11.58 -21.68,105.29 -47.54,214.21 -74.25,317.91 -8.69,33.74 -19.64,70.64 -26.26,103.84z"/>
   <path class="fil0" d="M1067.31 225.28c0.11,74.47 -75.06,88.36 -99.17,45.29 -31.03,5.17 -16.88,7.62 -48.22,-1.65 -23.73,22.93 -6.68,7.07 -27.56,22.4 3.52,15.91 7.53,27.22 5.19,45.24 -1.92,14.79 -11.76,28.37 -10.28,39.06l39.76 268.22c6.26,41.22 1.5,50.29 40.01,61.93 47.87,14.47 132.7,11.2 180.37,-7.8 44.08,-17.57 44.58,-18.29 43.66,-59.8l-18.6 -1.58c0.19,34.36 8.59,35.94 -33.23,51.56 -40.41,15.09 -114.13,18.94 -156.04,7.89 -38.26,-10.09 -38.64,-8.5 -39.7,-47.79 43.01,9.9 65.46,18.29 115.27,15.35 29.41,-1.73 84.42,-13.1 102.55,-28.5 -5.28,-3.3 -13.6,-5.13 -19.74,-8.63 -11.09,-6.33 -9.06,-4.2 -19.51,0.97 -16,7.92 -28.39,13.41 -49.24,10.65 16.52,-10.5 21.67,-6.4 34.65,-23.64 15.38,-20.42 -2.02,-23.3 -10.58,-35.3 -16.34,-22.95 3.45,-41.86 14.96,-60.4 5.68,-9.15 6.35,-9.99 14.58,-15.44 -2.92,-4.87 -6.74,-8.3 -10.34,-12.76 -5.71,-7.07 -4.55,-9.6 -8.36,-15.86 -1.81,-2.97 -39.26,-21.44 -9.71,-64.95 3.68,-5.41 9.26,-17.05 13.72,-21.81 3.11,-3.32 3.37,-2.02 6.44,-6.22 -14.25,-16.86 -11.83,-19.33 -15.77,-24.32 -2.07,-2.62 -8.42,-6.08 -11.87,-9.1 -13.4,-11.73 -15.31,-29.85 -7.8,-45.83 5.58,-11.87 11.89,-14.11 17.7,-24.31 11.29,-19.84 23.16,-28.08 48.04,-35.88 24.36,-7.63 49,-9.75 73.4,-0.69l-1.3 -13.4c-14.56,-0.41 -22.41,1.59 -36.68,-2.35 -11.88,-3.28 -18.39,-9.75 -26.73,-12.31 -20.21,14.5 -40.45,24.01 -68.02,10.19 -9.69,-4.86 -11.23,-3.01 -21.86,1.6z"/>
   <path class="fil0" d="M989.15 68.84c-16.02,-7.47 -28.92,-19.32 -52.34,-7.54 -16.6,8.35 -24.28,21.64 -23.1,46.54 -10.25,-6.25 -17.52,-14.33 -35.6,-11.66 -13.89,2.06 -23.78,8.84 -32.85,15.57 -34.17,25.37 -13.65,55.36 -19.91,68.73 -8.38,17.91 -2.47,2.01 -26.23,20.71 -20.17,15.86 -24.61,46.55 -7.01,66.22 11.91,13.31 15.34,9.41 31.04,17.46 7.52,16.45 5.94,31.26 8.43,49.72 2.13,15.85 24.82,48.4 42.28,5.84 6.33,-15.43 -3.45,-35.04 -3.81,-49.13 -0.31,-12.14 3.58,-14.37 1.07,-28.86 11.59,2.8 19.48,7.05 28.59,-4.21 6.82,-8.44 7,-18.44 12.14,-27.1 8.65,6.99 14,18.32 29.79,22.33 18.8,4.78 27.39,-6.08 35.31,-14.89 7.52,13.64 5.08,22.83 19.09,29.93 31.54,16 53.83,-17.12 48.24,-41.91 -3.63,-16.1 -13.26,-20.95 -12.44,-36.45 6.33,4.43 13.02,12.18 25.29,12.22 11.81,0.04 20.96,-7.91 24.55,-13.94 5.62,6.14 16.22,26.31 45.44,16.28 20.72,-7.11 23.24,-24.6 31.68,-35.73 3.84,7.54 5.67,28.53 27.62,35.01 18.84,5.56 39.88,-0.38 51.64,-9.32 10.22,-7.77 20.68,-24.92 17.77,-45.33 -3.07,-21.55 -15.97,-21.73 -33.03,-30.69 9.09,-28.11 -2.68,-55.53 -22.34,-65.91 -20.23,-10.69 -61.03,-9.89 -76.66,6.06l-5.37 -7.94c-1.5,-2.75 -3.4,-5.7 -5.09,-7.81 -27.89,-34.67 -105.93,-26.82 -124.2,25.8z"/>
   <path class="fil0" d="M605.17 1254.46c8.59,-1.36 8.99,-1.36 11.62,-9.01l111.97 -335.1c7.62,-22.73 35.12,-101.1 38.96,-117.62 -24.78,3.41 -16.94,1.72 -28.33,16.9 -15.12,20.14 -35.69,35.46 -40.19,46.97l-36.54 92.58c-4.67,11.87 -19.87,53.9 -24.95,60.77l-10.5 -186.08c-5.29,-0.34 -35.81,5.82 -39.66,8.23 -5.12,3.21 -12.11,24.21 -15.29,31.52l-68.88 165.16c-2,4.99 -11,28.47 -14.58,32.92l-4.02 -176.57c0.88,-11.09 18.41,-25.57 23.22,-35.76l-141.46 30.94c5.96,12.77 8.4,8.6 9.73,27.22l8.01 100.28c19.72,5.87 26.86,7.08 41.53,17.99 7.92,5.89 9.72,7.18 15.74,14.97l13.47 15.65c4.53,2.37 15.36,4.38 22.53,8.03 23.98,12.22 39.46,39.66 5.17,45.46 0.25,40.95 -11.59,45.48 -30.62,73.78 8.36,-0.96 19.92,-4.5 28.4,-6.62 10.81,-2.71 19.81,-2.09 24.04,-11.6 7.41,-16.67 14.48,-32.66 21.74,-49.21 4.84,-11.02 42.17,-93.47 42.86,-95.95l-8.66 171.19c39.11,27.24 32.18,37.93 44.68,62.95z"/>
   <path class="fil0" d="M884.77 1182.62c6.63,-2.25 10.95,-19.58 15.53,-31.36l163.58 -413.44c-70.73,3.04 -55.96,-9.61 -79.19,41.15l-112.21 244.03c-0.46,-46.34 2.75,-95.95 4.18,-142.61 0.71,-23.11 1.52,-46.28 2.13,-69.36 0.53,-20.16 -0.74,-15.99 9.52,-28.42 3.51,-4.25 13.35,-15.5 15.5,-20.19 -21.89,3.23 -72.02,16.29 -98.92,22.37l-28.65 6.88c-3.2,1.53 -1.16,0.22 -3.73,2.29l-7.43 414.38 119.69 -25.71z"/>
   <path class="fil0" d="M560.69 413.07c-6.33,28.76 -17.96,53 -32.46,70.81 -26.65,32.75 -120.4,54.02 -156.64,31.3 -31.81,-19.94 -32.65,-49.96 -42.42,-62.23 -17.3,17.81 -24.2,70.17 -24.58,100.44l13.88 -17.77c11,-14.15 8.87,-7.94 14.85,-14.43 0.87,33.34 -8.07,63.75 14.37,105.01 7.49,13.77 16.79,25.97 25.67,35.73 4.71,5.18 27.06,23.58 36.16,26.65l-18.26 -42.01c13.64,4.17 63.2,42.9 73.53,54.65 8.52,9.7 11.73,11.1 20.63,22.08 -2.01,-20.25 -23.66,-54.59 -33.36,-63.62l-9.55 6.06c7.49,-16.92 7.55,-7.4 -1.89,-24.28 -5.29,-9.47 -8.87,-17.55 -11.34,-29.55 -16.52,2.4 -26.14,9.52 -36.85,16 1.11,-7.66 9.34,-15.6 13.41,-19.5 8.31,-7.97 12.66,-7.89 21.34,-13.65 -0.18,-14.28 0.91,-18.61 4.77,-30.31 -19.44,-3.48 -39.51,1.2 -58.16,2.89 6.57,-6.13 28.45,-13.25 36.85,-15.4 27.94,-7.16 19.21,0.38 38.57,-13.11 20.1,-14 51.98,-28.75 77.39,-28.04 -8.97,4.13 -49.38,7.87 -61.47,37.37 20.74,0.64 53.13,4.54 67.9,14.34l-73.4 -0.14 0.14 25.56c35.62,-1.4 46.65,-10.67 97.01,-4.6 4.8,0.58 9.43,0.86 13.89,3.25 -19.19,1.33 -91.92,8.83 -105.87,14.61 1.14,12.06 8.02,18.94 14.5,25.36 19.64,-4.02 43.92,-16.66 77.72,-15.6 -3.59,2.29 -45.81,17.6 -64.51,27.61 47.44,60.28 184.78,-31.16 186.18,-34.46l1.27 -27.3c-20.13,-0.35 -56.92,-20.71 -76.96,-28.32 -14.24,-5.41 -26.34,-11 -33.24,-19.99 -6.51,-8.48 -14.17,-23.35 -14.09,-38.01 2.46,3.17 8.23,12.82 11.38,14.53l5.11 -25.97c29.42,9.45 44.18,19.56 81.49,17.26 29.19,-1.81 59.56,-10.76 71.55,-29.07 -26.53,-43.34 -109.48,-67.02 -164.5,-54.16z"/>
   <path class="fil0" d="M323.26 72.74c45.08,12.13 50.29,18 79.51,44.93 3.57,3.29 4.85,5.84 7.9,8.52 -12.27,-0.49 -53.88,-25.04 -112.39,-1.34 -18.88,7.65 -28.51,15.39 -42.15,25.67 -7.67,5.79 -28.25,27.14 -32,36.33 46.51,-3.2 50.12,0.39 84.05,15.4 10.47,-5.28 6.75,-7.64 31.04,-17.09 12.39,-4.82 25.96,-7.62 38.42,-11.24 -5.73,-5.62 -17,-8.3 -24.07,-12.88 57.85,-11.5 124.37,7.73 166.98,45.46 4.59,4.07 3.35,5.04 8.77,8.05 -4.89,-46.76 -26.06,-56 -38.76,-74.74 28.64,12.67 68.95,54.76 77.23,92.11 5.11,-4.13 11.68,-14.6 16.54,-21.14 17.11,-23.02 28.71,-43.28 51.91,-61.07 14.69,-11.27 28.2,-18.77 46.22,-28.09 17.63,-9.11 34.69,-13.64 52.66,-21.58 -10.34,-9.75 -37.35,-20.05 -55.9,-21.32 -30.26,-2.08 -41.2,7.6 -61.13,16.56l-17.17 -14.31c-20.3,-14.86 -62.18,-22.93 -76.07,-12.35 3.94,4.71 5.52,4.78 10.09,8.88 4.12,3.69 6.24,6.39 10.55,10.45 21.33,20.11 31.55,60.37 28.34,93.33 -10.82,-15.49 -10.07,-31.65 -36.43,-57.79 -56.55,-56.08 -132.58,-79.8 -214.14,-50.74z"/>
   <path class="fil0" d="M94.75 365.67c-52.53,14.06 -50.47,100.85 -41.34,144.95 8.46,40.85 43.71,115.42 90.6,102.31 55.25,-15.45 59.91,-139.3 10.99,-213.66 -8.53,-12.96 -33.41,-40.78 -60.25,-33.6z"/>
   <path class="fil0" d="M506.55 679.48c-0.25,27.72 8.46,51.18 33.72,63.3 2.63,-12.99 4.64,-24.96 13.25,-30.45 3.91,7.07 5.38,18.04 9.68,26.04 9.91,18.43 35.28,37.25 58.06,44.05 -3.85,-16.59 -10.5,-40.4 1.66,-54.72 2.26,3.48 3.81,10.19 5.69,14.7 2.22,5.35 4.78,8.8 7.81,13.15 10.64,15.31 59.82,49.2 70.56,53.38 8.95,-8.85 22.9,-31.59 30.28,-46.57 10.72,-21.76 12.74,-39.17 9.47,-65.31 10.07,5.42 13.08,11.54 27.99,12.64 1.39,-54.89 -26.16,-70.45 -77.63,-77.67 -33.14,-4.65 -81.06,28.96 -108.8,42.71 -25.96,12.87 -56.68,19.8 -81.75,4.75z"/>
   <path class="fil0" d="M567.89 295.67c-60.48,-28.49 -145.08,-73.94 -202.64,5.91 -8.35,11.58 -29,46.89 -29.14,64.97 51.84,-15.38 130.05,-35.96 188.36,-33.56 38.27,1.58 38.38,9.87 67.69,-7.85 14.96,-9.04 46.94,-15.96 64.65,-19.4 11.86,-2.3 38.41,-4.25 46.86,-9.58 -8.98,-19.88 -41.12,-60.94 -67.89,-62.94 -19.45,-1.45 -35.42,13.36 -42.56,21.94 -10.47,12.58 -15.92,27.04 -25.34,40.5z"/>
   <path class="fil0" d="M399.77 377.51c-28.12,16.02 -30.7,39.59 -19.46,67.61 11.21,27.95 24.71,42.94 62.6,32.5 66.43,-18.3 89.63,-98.76 72.5,-114.59 35.27,-1.21 14.24,68.34 5.09,87.3 -11.73,24.32 -43.5,38.29 -77.82,44.7 -50.25,9.4 -62.19,-7.94 -74.82,-47.12 -13.64,-42.33 -19.39,-60.54 31.92,-70.41zm93.69 -24.16c-34.88,2.25 -124.6,12.2 -141.63,33.3 -12.92,16.01 -0.99,51.5 4.9,69.12 8.1,24.24 16.86,39.9 42.61,46.28 41.72,10.34 106.77,-8.22 126.92,-42.74 9.88,-16.93 18.29,-47.03 18.07,-69.56 -0.33,-33.87 -19.26,-38.44 -50.88,-36.4z"/>
   <path class="fil0" d="M100.22 344.68c32.62,0.4 53.21,6.54 73.76,37.3 50.02,74.83 47.88,219.4 -20.76,248.42 18.15,9.04 46.52,1.08 59.4,-8.57 75.03,-56.23 27,-305.21 -65.75,-304.09 -20.68,0.25 -40.84,14.58 -46.65,26.95z"/>
   <path class="fil0" d="M321.29 864.1c-3.3,-8.64 -8.67,-17.07 -12.63,-26.13 -13.67,-31.34 -20.78,-52.89 -28.43,-87.8 -13.14,-59.92 -6.13,-85.93 0.68,-139.7 -8.46,5.26 -18.97,20.69 -45.79,35.54 -9.1,5.04 -17.49,8.93 -28.15,12.19 -5,1.53 -10.18,2.71 -15.7,3.51 -3.14,0.46 -6.12,0.57 -9.06,0.94 -1.78,0.22 -2.58,0.28 -4.32,0.71 -17.15,4.3 3.71,70.02 7.78,79.65 11.44,27.06 19.75,35.43 36.45,54.63 3.41,-26.78 4.9,-50.25 17.81,-70.51 3.96,49.97 17.81,82.3 51.19,113.82 4.48,4.23 24.01,20.62 30.16,23.15z"/>
   <path class="fil0" d="M346.82 800.61l-3.72 -38.85 34.73 40.94c4.36,5.51 7.39,7.26 12.17,12.02 31.73,31.59 20.29,19.8 68.11,13.81 -2.14,-18.09 -11.87,-35.87 -15.93,-50.97 13.19,7.34 30.02,28.3 36.65,44.68 3.92,-0.39 7.51,-0.91 11.57,-1.57l7.74 -1.99c0.27,-0.11 0.95,-0.08 1.14,-0.59 0.19,-0.51 0.77,-0.38 1.12,-0.63 -17.76,-46.93 -46.57,-58.78 -72.83,-82.23l-27.74 -23.42c7.8,24.54 19.33,34.17 19.24,66.71 -13.27,-12.17 -13.65,-18.88 -45.38,-45.94 -20.62,-17.59 -27.33,-21.73 -43.2,-48.79 -6.19,-10.55 -15.48,-32.37 -20.69,-39.33 -10.21,18.8 -4.84,70.18 0.88,91.45 3.77,13.98 8.31,23.81 14.42,35.56 3.51,6.74 14.93,24.66 21.72,29.15z"/>
   <path class="fil0" d="M1141.1 397.33c33.89,-0.88 42.19,6.56 39.87,42.24 -1.83,28.18 -25.17,27.9 -43.69,38.97l6.07 5.79c12.87,9.83 30.15,-5.1 72.01,-2.84 36.68,1.98 45.05,14.55 66.11,27.95 31.99,-35.93 21.41,-84.09 -15.88,-108.64 -33.26,-21.9 -89.81,-25.35 -124.49,-3.47z"/>
   <path class="fil0" d="M149.08 292.25l18.51 -1.39c-5.39,-78.25 16.46,-125.26 56.15,-180.82 7.76,-10.86 14.26,-17.41 23.06,-25.37 79.24,-71.76 235.86,-82.19 341.39,-36.18 13.66,5.96 18.28,14.1 34.9,13.5 -9.29,-13.19 -42.24,-31.3 -63.82,-39.47 -80.71,-30.6 -186.73,-30.98 -261.58,4.9 -97.21,46.6 -157.78,153.98 -148.63,264.84z"/>
   <path class="fil0" d="M616.47 395.41l6.19 -0c1.22,-2.59 0.86,0.13 0.69,-3.43 -0.22,-4.7 -8.49,-18.17 -9.03,-32.89 -0.58,-15.76 12.9,-20.18 26.23,-22.54 -14.95,17.33 -20,26.53 -4.01,50.9 12.52,19.08 24.91,16.9 53.37,20.77 13.63,1.85 26.85,12.19 44.43,-21.65 11.17,-21.5 6.84,-42.41 3.76,-67.11 17.2,1.65 18.87,6.04 19.78,23.55 0.91,17.66 -0.98,60.51 -6.68,76.53 -5.6,15.73 -12.46,11.19 -25.38,17.04 3.34,7.26 13.06,6.24 20.12,3.52 6.27,-2.43 10.51,-7.33 13.2,-14.19 7.52,-19.16 11.97,-77.73 6.83,-96.78 -4.76,-17.66 -17.95,-18.2 -38.12,-17.56 -34.39,1.09 -62.36,6.82 -91.97,16.91 -15.22,5.19 -27.51,7.89 -30.04,24.84 -1.5,10.09 5.27,35.72 10.63,42.09z"/>
   <path class="fil0" d="M1141.05 523.38c33.7,0.76 50.15,-3.7 46.59,37.11 -2.8,32.1 -17.22,37.38 -48.75,36.72 2.33,3.65 -0.09,1.08 3.59,4.13 7.71,6.39 29.14,13.7 41.1,15.09 25.66,2.98 33.6,-1.8 55.55,-5.14 -3.66,8.41 -14.71,17.47 -23.8,21.55l-0.11 21.49c32.17,-16.49 79.02,-73.83 58.44,-114.74 -18.8,-37.37 -94.89,-44.35 -132.62,-16.21z"/>
   <path class="fil0" d="M1129.98 278.15c20.75,0.54 47.09,-5.04 45.73,42.27 -0.82,28.24 -21.87,35.77 -48.09,39.77 9.45,4.85 4.21,12.9 33.04,2.37 43.52,-15.89 75.92,-6.03 112.03,13.56 11.32,-14.58 15.25,-40.07 5.13,-58.55 -14.92,-27.23 -56.75,-56.43 -91.56,-56.74 -20.56,-0.18 -43.62,6.93 -56.27,17.32z"/>
   <path class="fil0" d="M693.08 576.98l0.1 26.69c10.81,7.93 44.79,18.29 62.16,17.6 20.44,-0.8 42.17,-18.28 43.58,-36.23 -5.73,-4.87 -12.43,-7.16 -19.36,-9.7 -0.24,-0.09 -3.54,-1.33 -3.7,-1.4l-3.74 -1.81c8.68,-4.71 20.54,-3.21 31.61,-2.91l2.78 -13.01c16.6,0.52 28.2,7.83 41.51,11.53l-3.89 -3.69c-24.72,-18.57 -60.73,-11.65 -83.46,-10.29 9.52,-12.12 25.17,-13.69 44.71,-13.7l-4.7 -20.16 42.38 -5.1c-53.21,-3.19 -43.67,2.87 -79.64,10.47 7.1,-12.18 22.86,-17.7 27,-22.64 -8.91,-11.38 -36.05,-37.88 -49.95,-43.08 8.86,32.61 21.22,29.58 -5.75,66.18 -7.28,9.89 -14.54,15.25 -20.63,26.23 -3.2,5.78 -5.1,8.52 -8.77,13.75 -6.31,8.99 -5.5,5.21 -12.24,11.24z"/>
   <path class="fil0" d="M79.9 810.4c1.81,-34.19 5.46,-58.24 13.64,-89.69 7.28,-27.98 19.21,-52.34 26.43,-77.85 -23.47,-4.63 -32.32,-17.15 -45.83,-27.21 -11.64,18.26 -18.15,75.77 -17.95,101.74 0.26,33.41 8.08,70.21 23.71,93.01z"/>
   <path class="fil0" d="M89.41 317.5c6.94,-3.04 12.36,-8.75 22.21,-14.48 8.95,-5.2 15.79,-6.46 25,-10.17 -1.43,-59.66 11.21,-131 44.04,-180.65 4.55,-6.89 9.72,-12.65 13.6,-19.77 -8.87,3.54 -34.25,34.3 -40.18,41.6 -41.38,50.89 -62.91,112.86 -64.68,183.48z"/>
   <path class="fil0" d="M311.5 250.99c77.81,-28.98 86.73,-36.64 173.86,-7.71 10.59,3.52 44.95,19.03 51,19.72l-21.68 -19.96c-44.6,-39.93 -100.57,-70.62 -161.08,-40.3 -16.51,8.27 -34.93,28.46 -42.09,48.25z"/>
   <path class="fil0" d="M189.38 298.86c8.68,-9.49 12.95,-25.14 34.34,-33.89 27.07,-11.08 43.61,6.01 56.46,10.87l14.91 -50.64c-8.44,-8.36 -62.58,-24.7 -86.1,-10.53 -20.37,12.27 -25.17,53.56 -19.6,84.2z"/>
   <path class="fil0" d="M242.61 611.96l20.01 -28.95c23.44,-40.51 21.41,-83.28 13.48,-128.87 -5.18,-29.78 -12.04,-53.32 -24.46,-77.21 -10.11,-19.44 -29.38,-42.26 -51.04,-49.7 4.59,8.19 11.07,17.58 16.93,27.29 32.47,53.78 46.53,122.06 43.4,185.28 -1.65,33.26 -10,46.14 -18.31,72.16z"/>
   <path class="fil0" d="M614.45 215.24c51.03,-7.4 73.55,18.99 99.7,60.71 2.77,4.42 5.31,10.54 8.85,15.65l40.81 -1.99c-10.26,-15.71 -8.16,12.1 -35.52,-35.87 -14.3,-25.07 -36.21,-74.52 -72.16,-69.67 -17.75,2.39 -36.08,19.88 -41.68,31.17z"/>
   <path class="fil0" d="M577.77 485.93c4.96,20.26 18.63,33.71 22.46,40.93 18.85,-5.38 29.71,-14 42.93,2.43 7.06,8.77 16.78,27.34 30.07,29.78 21.95,4.02 23.4,-13.11 29.06,-28.61 2.53,-6.91 5.77,-13.59 10.21,-18.84 6.3,-7.44 8.08,-7.53 19.53,-10.94l-0.03 -14.99c-9.07,2.67 -21.44,10.85 -33.68,14.97 -13.74,4.63 -25.82,8.05 -41.47,8.25 -35.59,0.46 -53.5,-12.06 -79.08,-22.99z"/>
   <path class="fil0" d="M144.31 681.06c-2.13,2.48 -0.76,-0.1 -3.08,4.86 -3.09,6.61 -6.42,29.49 -7.09,36.29 -3.59,36.34 7.39,101.85 24.51,123.6 14.16,-8.52 26.44,-16.76 42.92,-24.81 -8.43,-15.89 -50.38,-45.43 -57.26,-139.94z"/>
   <path class="fil0" d="M277.51 379.65c11.1,-9.58 17.61,-17.98 27.71,-29.97 9.27,-11.01 15.82,-24.63 23.79,-35.94 12.2,-17.32 24.7,-35.02 40.32,-48.44 6.98,-5.99 12.23,-7.5 17.99,-12.6 -13.36,-0.04 -39.03,6.36 -49.92,11.3 -6.99,3.17 -13.99,6.91 -19.6,11.11 -31.82,23.78 -57.45,83.37 -40.29,104.53z"/>
   <path class="fil0" d="M669.48 160.52c15.29,3.2 20.29,9.8 29.31,14.75 13.97,-5.82 23.5,-12.36 40.85,-3.91 13.54,6.6 20.68,14.04 29.07,25.84 1.95,-1.82 10.9,-11.16 12.41,-14 8.84,-16.55 -21.43,-41.29 -34.4,-49.56 -23.4,-14.92 -69.28,14.46 -77.25,26.88z"/>
   <path class="fil0" d="M874.15 598.95c-10.25,-4.85 -28.45,-16.33 -42.35,-16.51 8.55,12.05 19.98,29.53 27.71,45.2 14.52,29.46 13.52,44.85 18.68,57.04 6.82,-14.3 7.17,-49.13 5.3,-66.28 -2.87,-26.37 -9.8,-37.33 -15.44,-58.79 7.45,3.3 13.56,10.22 20.81,13.79 0.89,-10.04 0.71,-24.77 -4.46,-32.27 -14.25,-6.44 -29.04,-5.78 -45.82,-3.39 1.38,4.44 31.79,31.65 35.56,61.21z"/>
   <path class="fil0" d="M474.2 1088.58c-21.08,-28.67 -101.77,-5.13 -100.34,32.29 1.07,28.21 37.47,-2.16 46.34,-7.42 22.33,-13.25 49.18,-21.92 54,-24.86z"/>
   <path class="fil0" d="M1129.95 294.04c-42.73,8.56 -54.1,44.66 -5.1,49.07 19.24,1.73 34.9,-3.53 36.24,-22.68 1.62,-23.06 -9.48,-30.72 -31.14,-26.38z"/>
   <path class="fil0" d="M1137.18 410.67c-15.23,3.78 -32.9,11.75 -36.05,24.87 -7.12,29.63 67.03,37.81 67.23,-0.57 0.11,-20.92 -10.58,-29.41 -31.18,-24.29z"/>
   <path class="fil0" d="M1141.38 537.74c-45.36,8.44 -45.87,41.94 2.82,46.38 20.05,1.83 32.96,-6.32 32.2,-26.41 -0.83,-21.72 -14.58,-23.77 -35.01,-19.96z"/>
   <path class="fil0" d="M855.58 737.13c11.31,-22.85 -19.23,-82.29 -39.22,-94.12 1.8,17.08 4.99,30.04 5.36,48.56 0.38,18.85 -1.69,34.25 -3,52.53l36.86 -6.97z"/>
   <path class="fil0" d="M-0 426.47c5.55,-3.66 14,-10.9 19.32,-15.69 22.93,-20.65 8.29,-15.06 28.04,-42.94 2.63,-3.71 4.41,-6.7 8.03,-9.72 12.97,-10.79 9.5,1.91 11.38,-36.39 -34.14,11.21 -65.56,63.88 -66.77,104.74z"/>
   <path class="fil0" d="M866.79 408.32l0 -25.5c-22.45,-2.05 -39.34,-11.67 -48.31,-25.57 -10.1,-15.65 -4.63,-39 -27.13,-46.6 -0.61,17.31 8.35,12.52 0.56,36.87 -2.15,6.71 1.62,10.6 5.35,14.78 20.51,22.96 33.91,37.79 69.52,46.03z"/>
   <path class="fil0" d="M16.08 620.91c3.8,-5.67 8.08,-20.57 12.36,-28.3 22.9,-41.33 17.93,-14.62 5.36,-55.96 -3.47,-11.43 -4.99,-23.98 -5.67,-36.47l-3.59 6.25c-3.96,10.24 -9.36,38.57 -10.57,49.13 -2.48,21.58 -2.43,45 2.13,65.34z"/>
   <path class="fil0" d="M714.04 188.76c5.68,12.04 13.26,25.08 19.71,38.55 6.25,13.06 14.33,30.9 25.32,36.08 -0.66,-10.03 -1.9,-20.19 -2.18,-30.15 -0.35,-12.42 5.14,-18.08 -0.44,-28.63 -7.73,-14.61 -21.58,-22.29 -42.41,-15.86z"/>
   <path class="fil0" d="M203.85 301.47c19.33,11.54 16.26,0.54 46.48,28.25 1.69,1.55 0.99,1.05 2.6,2.38 3.72,3.07 0.4,0.86 4.29,3.11 7.15,-31.5 15.15,-35.01 -5.2,-47.46 -21.2,-12.97 -38.96,3.81 -48.18,13.73z"/>
   <path class="fil0" d="M870.92 496.83c-6.18,-33.66 -41.25,-54.46 -62.39,-74.8 -5.31,-5.11 -5.81,-6.14 -11.19,-9.43 6.61,33.35 44.48,76.61 73.58,84.23z"/>
   <path class="fil0" d="M1288.13 79.52c-28.9,11.94 -9.64,46.3 17.11,37.24 30.36,-10.29 9.82,-48.37 -17.11,-37.24z"/>
   <path class="fil0" d="M530.82 791.27c8.93,23.49 14.68,48.98 14.22,76.83 2.19,-1.73 0.94,-0.47 2.89,-2.76l9.24 -16.83c10.41,-25.6 4.86,-51.08 -26.34,-57.23z"/>
   <path class="fil0" d="M288.47 395.96l6.94 30.29c6.67,-4.82 12.92,-7.4 20.6,-11.87l-5.07 -24.04c-9.96,-1.47 -15.65,3.01 -22.46,5.62z"/>
   <path class="fil1" d="M578.23 1305.89c7.04,-2.47 11.13,-10.42 12.18,-20.41 1.94,-18.38 -4.44,-28.75 -4.45,-28.79 -0.14,-0.81 -0.59,-0.9 -0.92,-1.32 -0.43,40.32 -13.95,40.23 -6.81,50.51z"/>
   <path class="fil2" d="M62.91 288.21l5.24 -15.11 -17.66 -6c1.99,9.86 6.61,17.29 12.43,21.1z"/>
  </g>
 </g>
</svg>
