<?xml version="1.0" encoding="UTF-8"?>
<!DOCTYPE svg PUBLIC "-//W3C//DTD SVG 1.1//EN" "http://www.w3.org/Graphics/SVG/1.1/DTD/svg11.dtd">
<!-- Creator: CorelDRAW (Versão OEM) -->
<svg xmlns="http://www.w3.org/2000/svg" xml:space="preserve" width="643.467mm" height="433.211mm" version="1.1" style="shape-rendering:geometricPrecision; text-rendering:geometricPrecision; image-rendering:optimizeQuality; fill-rule:evenodd; clip-rule:evenodd"
viewBox="0 0 14514.27 9771.67"
 xmlns:xlink="http://www.w3.org/1999/xlink"
 xmlns:xodm="http://www.corel.com/coreldraw/odm/2003">
 <defs>
  <style type="text/css">
   <![CDATA[
    .fil0 {fill:black}
    .fil13 {fill:black}
    .fil1 {fill:#4A4A4A}
    .fil2 {fill:#535454}
    .fil5 {fill:#595959}
    .fil7 {fill:#5C5C5C}
    .fil21 {fill:#5D5D5E}
    .fil19 {fill:#666666}
    .fil20 {fill:#676767}
    .fil9 {fill:#6C6C6C}
    .fil12 {fill:#737374}
    .fil10 {fill:#757676}
    .fil11 {fill:#767677}
    .fil16 {fill:#D6D6D7}
    .fil22 {fill:#DADADA}
    .fil4 {fill:#DADADB}
    .fil8 {fill:#DEDEDE}
    .fil15 {fill:#DFDFE0}
    .fil18 {fill:#E1E1E1}
    .fil23 {fill:#FAFAFA}
    .fil14 {fill:#FBFCFC}
    .fil17 {fill:#FCFDFD}
    .fil6 {fill:#FEFEFE}
    .fil3 {fill:white}
   ]]>
  </style>
 </defs>
 <g id="Camada_x0020_1">
  <metadata id="CorelCorpID_0Corel-Layer"/>
  <path class="fil0" d="M5809.55 6196.05l260.99 2.16 0.06 860.85 -261.71 5.42 0.66 -868.43zm1437.61 -6196.05l37.73 0c19.9,74.14 60.1,166.75 88.74,241.61 104.1,272.13 190.34,464.26 298.73,727.92l956.09 -0.33c-0.85,-208.16 -27.75,-271.15 26.43,-483.79 -4.49,-22.89 -5.24,-28.42 10.71,-37.84 13.5,-18.98 22.37,-44.5 37.3,-68.09 70.83,-111.88 135.48,-162.44 149.39,-188.49 7.91,-7.06 -8.6,-4.09 11.4,-5.65 14.68,-1.15 4.46,-0.06 13.9,5.65 -24.42,168.07 20.23,335.18 99,452.84 60.67,90.62 132.66,149.54 213.77,216 112.16,91.9 280.84,173.59 383.27,324.98 60.05,88.74 164.21,278.1 138.15,419.48 1.96,-0.36 120.21,-53.68 130.26,-60.55 8.17,-6.62 -6.85,-11.7 25.11,-3.94 113.81,-19.96 197.59,-21.74 310.34,1.33l15.91 19.13c-89.52,57.42 -203.35,245.05 -227.26,368.16 -28.73,147.94 91.67,327.7 182.19,416.32 78.32,76.67 234.49,187.41 353.12,251.83 59.14,32.11 182.85,-11.57 249.13,-26.41 545.01,-122.02 1075.9,-313.01 1580.2,-536.23 76.34,-33.79 370,-159.54 411.66,-195.76l7.02 -7.35c32.79,-29.49 108.06,-69.91 146.81,-90.8l83.75 -43.57c20.73,-11.87 18.86,-10.07 42.8,-20.86l127.37 -63.61c44.95,-19.75 49.17,-45.97 159,-95.63 38.68,-17.49 35.2,-28.31 91.05,-28.31 6.23,11.1 4.06,9.18 7.96,24.99 -11.45,16.46 -484.29,1293.74 -503.12,1369.73 101.38,-1.8 650.28,-20.95 703.97,-41.97 34.31,-9.03 44.12,-18.44 83.11,-26.38 42.52,-8.66 274.04,-5.45 328.76,-5.45 101.83,0 130.85,9.97 205.94,-16.87 48.19,-17.22 137.89,-29.18 144.18,38.84 -25.09,29.87 -127.61,266.01 -151.15,320.29 -98.03,226.07 -222.16,510.2 -330.09,728.4 -20.47,41.39 -17.41,43.02 -68.79,50.99 -68.83,10.68 -136.68,19.55 -204.78,32.84l9.31 76.48 235.43 -23.24c-0.28,194.35 23.54,421.04 41.28,614.48 18.74,204.37 30.01,415.36 43.38,621.85l-241.37 -33.87c4.57,70.78 11.56,202.12 35.48,259.15 100.08,31.6 260.82,42.15 371.88,72.15 7.15,54.25 382.05,1077.88 402.65,1107.85l0 53.72c-100.82,30.82 -205.04,76.31 -303.81,113.92 -50.3,19.15 -97.57,38.66 -148.76,58.1 -79.77,30.3 -73.33,51.63 -153.12,16.08 -626.57,-279.14 -1013.66,-325.63 -1661.56,-446.92 -114.07,-21.35 -245.38,-51.74 -355.26,-67.92 34.52,150.39 216.32,711.16 273.75,896.95 92.62,299.68 194.2,594.39 291.51,890.03l-19.62 14.67c-67.79,-33.34 -133.19,-76.13 -212.52,-112.55 -239.31,-109.87 -461.64,-186.08 -725.72,-244.69 -284.3,-63.1 -882.51,-156.57 -1162.51,-126.76 -144.26,286.39 -337.28,494.23 -611.49,677.32 -631.35,421.57 -1512.84,609.47 -1998.85,897.77l-190.5 127.95c-16.38,13.66 -24.69,26.74 -38.82,40.5 -88.01,85.67 -193.98,190.26 -228.72,325.23l-19.47 0c-17.44,-72.16 -79.49,-168.23 -115.11,-210.79 -56.16,-67.1 -52.88,-69.49 -117.87,-120.9 -97.27,-76.95 -79.83,-80.34 -236.64,-169.15 -416.33,-235.79 -1093.69,-410.57 -1581.62,-662.32 -142.43,-73.49 -289.13,-144.88 -411.53,-232.96 -162.37,-116.84 -145.77,-107.43 -268.58,-216.91l-154.03 -164.33c-53.45,-69.47 -165.11,-212.78 -182.71,-293.18 -603.8,3.28 -1362.77,118.13 -1909.24,387.07l-210.51 114.96 -7.96 -17.38c48.71,-60.26 426.89,-1297.36 505.95,-1560.87 21.06,-70.19 56.35,-165.2 69.21,-235.08 -848.17,165.26 -1189.62,179.06 -2013.84,510.85 -74.48,29.98 -73.27,18.21 -150.26,-12.15 -113.65,-44.81 -375.8,-154.76 -464.06,-176.31l0 -78.22c25.79,-34.09 186.45,-488.96 250.66,-622.26 48.25,-100.16 67.65,-93.81 77.07,-218.99 26.72,-355.12 54.74,-722.53 92.64,-1074.82 38.01,-353.28 66.53,-724.22 91.74,-1079.85 3.41,-48.14 -257.2,-630 -322.29,-764.19 -4.2,-8.65 -7.8,-16.93 -13.22,-26.44l-17.45 -25.55 15.91 -17.05c235.83,17.24 474.12,24.78 709.41,41.15 139.7,9.72 605.79,39.01 720.91,32.56l-494.86 -1382.57c13.45,-14.9 8.82,-9.88 22.27,-15.91 47.48,50.72 625.95,346.6 728.87,398.18 247.09,123.84 523.42,240.01 793.48,344.52 234.37,90.7 1049.07,368.33 1308.24,388.16 64.73,4.95 245.46,-137.69 314.57,-186.78 24.49,-17.39 24.19,-11.2 38.59,-36.93 3.01,-13.39 -0.67,-9.42 12.28,-12.05 63.29,-54.94 95.72,-87.86 145.08,-161.15 42.43,-63 77.41,-141.27 79.96,-232.54 4.86,-174.13 -125.29,-333.5 -206.17,-413.87 -2.24,-15.16 -2.66,-4.23 -0.64,-21.31 0.13,-1.12 2.25,-2.2 2.4,-4.8 0.14,-2.5 2.19,-2.66 3.24,-4.03 279.05,-57.84 407.99,61.25 451.32,69.16l12.71 -143.71c63.33,-189.99 116.03,-299.12 264.58,-423.85 49.95,-41.94 229.35,-151.79 253.86,-175.87 83.83,-71.18 18.99,-6.72 118.34,-104.54 46.8,-46.08 67.97,-56.87 107.59,-123.23 62.97,-105.46 89.34,-232.3 87.88,-372.85 2.73,-21.84 3.06,-30.51 17.42,-40.36 8.83,-6.05 6.21,-3.7 15,-4.23 19.65,-1.19 5.53,-2.06 15.06,4.8 15.82,24.33 35.21,40.98 56.59,63.82 99.73,106.57 150,300.33 150.5,453.4 0.52,159.58 0.78,96.93 -15.16,229.69l963.24 -0.59 381.12 -953.2c7.15,-9.65 10.36,-14.06 14.44,-15.92zm743.88 7047.49l-122.55 13.16 -134.97 2.82 0.97 -865.15 260.72 -3.28 -1.78 348.02 423.74 -5.24 0.96 -340.73 253.21 -0.77 11.8 867.59 -264.7 -6.02 -2.79 -294.06 -420.74 -1.87c0.57,57.02 9.48,262.3 -3.87,285.52zm-1697.05 270.68l1944.72 0.88c157.61,-4.67 320.49,13.25 481.7,12.66 78.28,-0.28 159.97,0.18 239.6,2.54 78.88,2.33 175.67,-4.75 248.71,0.43l-54.3 29.82c-109.27,46.51 -259.55,145.02 -319.17,244.96 -221.34,371.03 127.03,524.95 365.05,357.84 51.04,-35.84 128.4,-115.15 160.3,-165.89 57.96,-92.2 105.83,-217.1 165.84,-319.86 122.16,-209.17 386.75,-116.04 674.27,-118.79 205.75,-1.97 414.86,25.08 620.67,33.69 274.35,11.49 567.76,82.15 829.48,143.76 86.3,20.32 175.85,50.95 263.58,69.18 -4.79,-54.42 -73.26,-238.77 -93.45,-302.28 -42.16,-132.61 -260.12,-829.58 -272.98,-914.51l141.38 12.59c24.76,51.45 193.51,630.53 217.52,707.61 36.44,116.99 74.18,232.17 110.91,350.44 24.18,77.85 103.01,283.38 110.07,352.84l-202.72 -71.24c-71.61,-23.98 -140.78,-40.89 -215.37,-61.79 -259.81,-72.81 -658.98,-149.5 -936.37,-157.17 -184.69,-5.11 -364.37,-24.72 -553.5,-13.57 -28.99,131.4 -200.23,365.95 -295.77,462.27 -101.68,102.52 -306.27,259.08 -438.98,323.64 10.15,-34.34 86.83,-105.3 114.87,-138.19 35.12,-41.19 71.74,-100.61 105.78,-151.2 35.5,-84.95 128.86,-209.31 127.2,-344.44 -62.54,15.61 -150.35,96.71 -189.15,133.4 -101.32,95.77 -203.92,245.43 -305.8,346.72 -173.64,172.63 -323.36,336.64 -543.3,450.92 -76.66,39.83 -396.91,178.13 -480.43,182.42l110.5 -82.36c41.3,-31.41 65.64,-65.06 101.15,-98.01 62.84,-58.3 115.48,-141.46 113.18,-234.66 -0.41,-16.47 -1.06,-40.17 -11.35,-49.7 -85.71,-44.19 -314.55,66.91 -372.77,100.87 -71.43,41.66 -217.28,163.08 -274.23,219.57 -158.5,157.22 -421.15,318.76 -657.9,324.33 16.69,-38.13 259.22,-102.86 266.39,-419.56 2.78,-122.61 -22,-192.2 -3.2,-321.45 12.15,-83.55 65.16,-192.57 120.83,-224.02 -102.82,-14.38 -329.39,124.63 -343.7,128.64 75.92,-206.01 340.25,-201.34 522.53,-200.18 15.07,0.09 33.79,-0.31 48.46,0.45l45.03 11.75c-75.87,34.27 -117.08,61.71 -160.4,115.66 -40.76,50.76 -70.22,142.33 -33.65,215.48 64.16,128.36 235.49,118.06 348.41,-58.83 94.95,-148.74 120.66,-408.32 260.29,-591.27 21.75,-28.5 41.21,-57.11 63.7,-80.07l73.55 -72.06 -2531.73 -0.6c27.08,51.35 42.63,28.66 101.92,107.68 250.52,333.9 195.28,687.73 429.07,771.78 38.56,13.86 91.73,11.8 127.06,-4.54 174.49,-80.71 60.83,-360.46 -128.01,-399.91 11.29,-9.19 1.71,-4.96 20.08,-10.72 9.22,-2.89 13.12,-3.44 22.8,-4.51 80.13,-8.88 279.02,1.77 347.52,16.6 93.2,20.17 211.03,101.49 228.67,172.88 -48.45,-3.67 -187.67,-123.99 -339.71,-125.39 43.14,78.8 90.35,102.64 110.62,232.14 32.25,206.08 -77,367.7 68.46,573.58 59.15,83.72 85.33,92.64 155.96,137.56l29.14 27.37c-94.34,2.53 -311.43,-76.77 -378.07,-114.76 -277.55,-158.21 -323.14,-287.55 -546.33,-425.13 -79.26,-48.86 -246.63,-122.79 -374.26,-106.8 -26.82,172.7 80.08,276.99 197.8,379.16 43.16,37.46 97.33,67.34 113.39,90.87 -86.76,-10.61 -391.24,-135.21 -474.87,-183.07 -145.77,-83.42 -282.58,-181.66 -374.87,-285.48 -104.11,-117.12 -179.03,-180.04 -271.91,-293.05 -15.52,-18.89 -26.75,-26.42 -43.07,-44.4 -107.92,-118.91 -95.25,-127.37 -244.24,-249.21 -34.58,-28.28 -66.82,-51.88 -116.69,-56.1 16.24,108.7 74.06,198.32 110.83,281.93 31.65,73.29 151.37,224.16 216.38,287.6l37.26 49.88c-96.82,-16.45 -333.49,-224.44 -406.45,-293.25 -61.02,-57.55 -104.89,-115.92 -161.65,-188.85 -28.91,-37.14 -114.97,-167.13 -129.82,-219.71l-29.86 -71.58c-481.46,-44.47 -1228.75,81.22 -1704.58,233.76 -53.7,17.22 -162.98,51.28 -203.74,72.16l222.14 -696.49c29.08,-94.19 215.34,-732.42 225.86,-714.73 1.1,1.84 4.63,-2.33 6.16,-2.87 1.51,-0.53 4.35,-1.87 6.23,-2.45 1.86,-0.58 4.23,-1.39 6.32,-1.94 5.34,-1.4 28.08,-4.01 33.82,-4.47 28.79,-2.31 58.11,-3.4 87,-5.38 -3.7,45.54 -246.9,828.14 -271.88,910.26 -19.55,64.27 -93.92,260.12 -96.76,307.18l522.48 -128.76c317.8,-76.05 858.43,-114.16 1175.25,-117.64 108.09,-1.19 211.53,-4.55 318.3,-9.27 109.27,-4.83 211.65,-15.83 285.67,39.43 112.9,84.3 166.62,274.8 244.7,399.58 200.34,320.19 548.34,289.11 587.93,82.15 33.96,-177.54 -90.45,-332.73 -224.21,-421.6 -64.67,-42.97 -146.83,-75.2 -207.68,-113.92l491.04 -7.04c159.34,-1.93 338.73,-21.31 493.35,-14.18zm1086.12 -757.04c30.87,428.36 -27.19,495.89 -393.54,505.78 -117.7,3.18 -326.79,12.99 -423.29,-30.99 -122.09,-55.65 -137.77,-143.62 -138.85,-303.71 -1.5,-220.23 -50,-450.41 157.03,-516.55 123.74,-39.53 525.04,-34.8 632.78,-5.53 137.52,37.37 160.43,118.82 167.89,276.37l-265.86 -4.15c-7.73,-43.26 -0.97,-65.31 -38.91,-79.55 -32.53,-12.21 -313.79,-9.43 -339.31,1.42 -56.93,24.21 -38.8,121.79 -38.43,192.45 1.45,274.71 -42.64,247.12 199.41,246.58 218.47,-0.48 218.85,28.01 214.41,-111.57l-223.41 -0.11 2.87 -173.04c67.28,-5.42 437.74,-9.26 487.2,2.6zm-2813.61 -365.82c149.64,12.74 311.39,11.98 462.56,11.38 64.6,-0.25 420.51,-16.56 447.06,-7.84l-5.63 194.81c-32.98,9.25 -264.27,9.83 -322.06,12.8 -110.72,5.7 -226.88,0.23 -337.35,-3.49l1.25 154.3 455.14 -0.65 -0.25 210.05 -450.22 16.71 0.25 322.9 -256.57 -6.23 5.81 -904.73zm4455.52 -1.75c144.27,10.38 294.53,12.41 439.3,13.39 142.55,0.97 298.17,-9.87 436.37,-6.18l10.28 211.04 -319.64 -7.94 8.52 677.56 -255.87 -0.15 -0.99 -675.72 -307.24 1.53 -10.73 -213.53zm-362.9 -2870.34c135.94,-5.35 540.03,-22.57 665.65,19.75 207.29,69.83 216.69,262.96 221.56,468.42l45.74 1344.47c6.08,139.84 25.51,297.7 -47.84,401.61 -81.81,115.89 -176.07,108.81 -353.49,105.77 -151.29,-2.59 -302.43,-12.83 -453.54,-15.43 -148.91,-2.56 -272.92,-9.69 -362.21,-97.31 -113.44,-111.32 -97.96,-196.04 -99.43,-362.26 -3.91,-442.47 -32.39,-901.64 -32.82,-1352.76 -0.14,-140.76 -15.2,-305.94 69.02,-393.74 120.89,-126.05 176.38,-111.78 347.37,-118.51zm2391.27 1178.31c-38.98,110.01 -110.34,125.79 -195.11,183.34 66.57,250.81 182.45,617.43 263.88,882.71 36.47,118.79 82.78,163.13 129.15,260.07 -205.29,-19.47 -424.73,-52.29 -632.33,-52.93 0.02,-28.2 38.52,-102.07 52.17,-135.74 28.47,-70.21 22.98,-61.92 -0.33,-137.11 -37.66,-121.45 -236.73,-802.95 -264.88,-857.69l-138.17 -2.93c-7.95,75.43 12.12,223.08 15.96,308.27 3.26,72.41 27.5,587.69 37.22,616 17.58,51.16 96.66,131.72 122.47,196.57 -112.77,-6.54 -228.33,-16.34 -342.31,-23.71 -116.28,-7.52 -232.35,-5.76 -346.52,-12.95 9.3,-70.46 86.9,-156.77 88.34,-250.46 1.63,-105.52 -9.05,-228 -14.96,-334.65 -11.81,-213.27 -15.03,-430.1 -31.09,-642.64 -16.29,-215.56 -14.9,-438.73 -28.19,-654.06 -13.28,-215.15 15.36,-267.71 -77.71,-433.6 -21.48,-38.3 -46.28,-62.1 -64.69,-96.9 148.32,-6.65 1004.09,-40.62 1125.71,-9.55 292.16,74.65 277.35,265.69 290.67,483.71 7.23,118.28 13.23,242.46 17.85,361.48 3.6,92.82 20.38,275.12 -7.14,352.77zm-6195.74 1194.92c13.61,-29.9 48.99,-87.29 69.01,-120.23 24.81,-40.83 43.88,-80.4 57.69,-133.78 67.98,-262.75 143.73,-647.54 205.94,-923.32l203.59 -926.12c29.71,-133.45 -41.92,-172.52 -66.17,-281.37 99.21,-5.56 222.43,9.12 324.93,11.54 113.65,2.68 231.55,5.29 345.01,1.8 26.17,190.2 73.03,398.33 108.77,590.1l218.92 1166.45c26.72,138.76 62.63,428.38 154.94,535.71 22.73,-10.42 4.6,4.16 20.26,-18.94l39.36 -79.74c18.83,-38.34 39.66,-67.2 42.44,-115.76 12.94,-226.35 7.92,-694.83 8.1,-930.72 0.07,-85.59 16.93,-893.2 3.34,-933 -20.02,-58.63 -70.1,-153.24 -95.1,-211.48l571.75 5.96c23.88,150.71 162.9,477.99 224.12,634.61 41.22,105.46 79.01,205.57 119.08,310.54 17.87,46.81 92.71,272.75 129.87,300.62 -1.81,-118.98 -1.51,-950.91 -13.59,-1021.56 -13.05,-76.32 -94.59,-160.55 -113.68,-231.79l639.92 -2.07c-22.13,65.11 -74.82,160.18 -79.6,224.76 -12.18,164.44 7.82,699.36 12.39,877.61 5.06,197.32 3.25,397.21 4.88,594.86 1.6,194.24 11.78,397.68 8.17,587.95l-486.39 0.18c-87.89,-212.65 -452.35,-1248.8 -510.42,-1311.64 -10.22,326.33 6.01,728.25 3.69,1073.82 -0.52,76.94 5.41,85.01 39.13,140.28l68.18 104.79c-203.29,-0.7 -390.36,7.41 -592,14.47 -99.27,3.48 -199.18,0.45 -298.84,3.64 -91.44,2.92 -194.66,13.72 -286.68,12.81l-48.51 -363.23c-72.54,-14.97 -130.19,-27.18 -197.71,-48.12 -48.2,-14.95 -132.91,-47.53 -178.21,-52.63l-103.98 492.87 -552.61 20.15zm-1517.09 100.65c27.23,-80.9 96.01,-179.15 108.06,-259.43 14.12,-94.06 17.12,-235.58 21.93,-334.11 8.64,-176.81 103.34,-1643.53 94.52,-1692.12 -16.33,-89.96 -77.95,-178.67 -109.3,-252.72 280.22,11.78 565.19,26.12 844.4,33.19 682.58,17.28 538.19,201.53 508.52,965.48 -7.52,193.72 -62.45,269.13 -205.16,366.89 -16.22,11.11 -32.49,18.53 -50.71,30.82 -0.75,77.21 107.56,446.27 134.3,543.58 24.58,89.47 45.9,182.32 72.51,269.84 15.22,50.06 93.25,209.45 83.63,236.87l-606.84 23.19c10.73,-24.69 42.43,-61.74 81.87,-148.13 32.01,-70.11 12.35,-92.55 -7.86,-171.9 -30.91,-121.34 -59.79,-242.12 -89.67,-364.01 -91.5,-373.31 -119.93,-376.4 -92.82,-792.68 48.18,-7.43 98.94,1.43 147.96,-3.77 54.69,-5.81 66.65,-23.23 72.57,-78.29l25.53 -416.5c-35.36,-109.97 -262.97,-98.98 -358.43,-90.92 -15.44,367.12 -38.6,733.02 -52.93,1100.15 -3.6,92.21 -55.11,757.66 -24.86,811.87 32.14,57.59 89.42,116.14 109.68,175.9l-706.89 46.82zm-778.21 94.55c28.15,-67.28 135.76,-188.41 143.54,-243.1 14.81,-104.1 13.85,-240.8 23.25,-349.19 20.36,-234.71 29.32,-472.96 44.84,-708.14 15.44,-234.01 34.46,-474.44 44.15,-707.84 5.05,-121.66 17.11,-235.45 17.72,-358.28 0.57,-114.8 -48.27,-197.33 -81.49,-298.19l652.22 23.27c1.57,43.91 -97,169.35 -107.76,252.18l-17.78 349.04c-8.76,225.66 -19.69,468.74 -38.63,692.62 -27.12,320.52 -41.63,708.97 -60.03,1041.82 -5.49,99.27 103.03,173.85 111.03,227.1 -121.24,16.35 -249.72,19.32 -373.63,33.79 -119.74,13.99 -237.67,31.59 -357.44,44.92zm8412.57 -2612.54c408.72,6.66 1190.01,-48.77 1617.26,-80.31 -14.69,74.79 -42.3,161.75 -60.28,243.07 -18.1,81.89 -32.72,165.2 -50.6,242.47l-431.18 22.8c22.33,193.15 23.26,404.29 36.23,602.25 25.17,384.29 55.56,807.37 72.58,1188.86 5.11,114.62 -3.38,182.31 43.09,278.35 32.49,67.14 73.58,143.4 101.2,207.3 -44.78,-1.93 -695.08,-103.65 -697,-104.76 -8.59,-14.57 81.18,-150.28 90.19,-192.99l-75.12 -1396.76c-9.2,-185.83 -24.11,-382.66 -23.34,-567.94l-417.07 18.47 -143.06 -356.1c-21.28,-41.68 -51.61,-72.51 -62.89,-104.73zm-10527.12 2961.1c37.88,-109.42 107.77,-209.97 149.8,-321.88 22.8,-60.73 108.09,-1154.71 117.58,-1269.39 23.01,-278.14 41.71,-571.57 73.36,-846.87 7.99,-69.48 14.11,-141.46 21.35,-209.96 7.94,-75.07 -175.95,-397.16 -193.48,-486.7 158.13,21.64 806.87,47.16 860.87,68.27 37.87,133.59 169.62,1044.64 188.8,1084.06 7.44,-7.01 3.4,-1 11.11,-13.46l18.21 -53.03c68.79,-230.95 161.86,-491.23 235.21,-727.85 15.9,-51.28 64.36,-228.72 85.57,-263.51l664.86 25.64c-44.2,63.06 -99.5,152.78 -137.21,238.23 -15.81,35.82 -25.86,296.15 -28.19,355.98 -17.76,455.37 -67.4,968.83 -93.37,1431.84 -6.56,117.04 -10.58,243.41 -20.83,359.09 -7.57,85.37 3.21,84.35 29.39,157.54 14.95,41.81 39.61,96.1 46.86,133.13l-659.56 82.01 103.44 -149.75c53.43,-77.43 45.14,-84.69 51.51,-191.65l79.52 -1164.19c4.18,-67.1 18.13,-168.03 16.77,-227.56 -32.68,36.18 -228.61,558.82 -265.58,654.06 -45.56,117.38 -215.97,585.13 -265.01,658.69 -63.8,-108.23 -298.18,-1292.58 -327.37,-1330.87 -13.08,394.82 -69.16,1000.14 -105.83,1422.38 -29.85,343.68 -18.28,174.13 50.42,417.5l-708.18 168.27zm12171.35 -3043.26c330.87,-12.85 1024.42,-58.39 1342.52,-100.43 -11.02,49.63 -187.6,376.22 -235.84,488.56 -5.48,12.75 -8.73,25.46 -16.04,39.6l-23.1 31.32 -472.49 33.63 53.35 663.27c58.31,24.51 270.8,3.45 356.36,17.07l43.81 531.89 -371.07 -34.01 72.96 844.37 508.12 99.51c25.26,58.81 191.74,469.79 192.44,495.11 -91.33,-16.9 -212.79,-52.96 -307.58,-77.34 -102.17,-26.28 -206.32,-48.21 -310.94,-71.77 -103.22,-23.24 -207.72,-46.71 -313.87,-67.63 -66.96,-13.2 -272.03,-45.16 -317.73,-66.35 69.71,-189.08 91.79,-121.47 76.68,-315.08 -48.57,-622.45 -97.76,-1230.62 -133.02,-1856.63 -6.71,-119.13 -14.7,-250.17 -26.38,-368.29 -11.72,-118.51 -98.15,-192.02 -118.21,-286.79zm-6220.15 -2025.21c128.09,5.33 255.43,2.99 383.68,3.07 303.17,0.19 246.56,17.69 289.39,-81.72 37.91,-88.02 75.99,-175.18 109.33,-264.71 20.92,-56.17 68.98,-259.17 86.68,-287.51 20.88,45.02 27.51,119.57 42.59,172.58 34.44,121.06 126.48,365.81 181.64,461.39l636.13 2.86c-77.25,72.1 -214.38,162.16 -307.08,250.98 -26.7,25.58 -36.4,26.95 -60.45,50.85 -36.41,36.18 -81.16,65.93 -119.31,104.01 -15.11,33.98 88.98,429.45 118.71,510.06 18.78,50.93 51.19,99.53 62.28,141.1 -82.52,-49.87 -531.6,-394.07 -562.45,-390.07 -20.2,2.62 -533.77,384.6 -563.33,396.92 13.98,-45.59 45.81,-91.75 65.98,-144.81 44.46,-116.96 116.44,-403.91 123.71,-514.44 -28.48,-18.89 -32.79,-26.45 -59.48,-50.85 -15.38,-14.05 -40.7,-33.81 -61.23,-50.23l-335.39 -276.84c-31.27,-21.21 -22.88,-15.23 -31.39,-32.63zm2798.23 -103.08c44.95,6.34 133.59,89.4 167.13,121.4 172.6,164.67 268.68,358.69 158.14,611.21 -87.8,200.57 -338.8,267.96 -353.87,514.3 -6.44,105.22 63.2,198.11 64.97,214.05 47.54,21.95 52.5,64.46 156.16,92.85 127.12,34.82 346.48,-4.72 287.14,-129.71 -93.48,-196.89 -133.92,-371.39 -37.77,-567.36 60.35,-122.99 128.3,-161.01 251.33,-218.96 -13.72,81.96 -146.34,237.67 -22.49,524.32 54.51,126.17 113.07,174.57 179.01,242.21 15.53,15.92 19.61,21.42 37.87,41.72 28.41,31.59 142.94,114.08 184.1,142.13 93.57,63.76 220.04,148.77 343.31,136.2 269.37,-27.48 786.34,-175.89 1043.12,-269.14 162.44,-58.99 314.45,-117.77 476.72,-183.19 161.69,-65.18 309.57,-127.58 462.49,-197.32 51.07,-23.29 411.66,-203.9 444.24,-211.08 -6.05,23.27 -255.43,675.88 -308.35,839.08 -6.72,20.74 -26.35,105.81 -43.01,118.14 -37.41,17.37 -120.04,12.96 -166.41,6.44l106.59 -321.4c37.9,-107.28 75.2,-215.21 114.36,-314.25 -82.31,23.62 -151.03,63.68 -228.73,97.65 -460.53,201.37 -1271,493.88 -1759.74,504.12 -429.43,9 -859.66,17.18 -1289.22,13.95 -209.58,-1.57 -419.86,-12.24 -511.85,-144.27 -143.86,-206.47 -122.07,-316.14 -126.48,-518.54 -149.05,35.14 -525.99,420.56 -161.89,633.03 18.14,10.58 28.48,14.19 33.97,30 -235.63,8.15 -484.38,5.02 -721.79,8.01l-1448.24 -1.24c-232.75,-1.51 -481.21,2.09 -712.32,-7.43 16.88,-20.86 276.83,-118.72 174.88,-364.7 -46.99,-113.36 -196.46,-262.79 -290.79,-299.74 -4.63,212.71 2.73,340.62 -109.93,494.97 -99.09,135.76 -211.83,168.08 -438.47,169.28 -379.54,2.01 -759.73,-12.76 -1130.18,-12.89l-64.98 -7.96 -42.83 6.28c-476.91,19.57 -1204.46,-215.55 -1647.97,-396.56 -84.69,-34.57 -431.75,-187.44 -483.41,-199.7 4.04,60.23 206.71,550.19 209.25,631.79 -143.32,-5.93 -159.32,8.95 -177.71,-34.92 -0.94,-2.25 -9.06,-27.25 -10.35,-31.18 -5.91,-18.07 -12.22,-41.65 -17.59,-60.31 -68.86,-239.07 -214.64,-624.7 -304.02,-846.21 39.07,11.97 107.26,53.01 144.55,73.08l427.5 201.31c496.47,204.32 686.77,294.41 1219.54,451.47 110.96,32.71 221.05,60.77 335.33,85.53 56.64,12.27 324.69,53.77 349.88,68.15 55.51,-12.3 51.21,10.01 107.1,-22.22 101.17,-58.35 276.3,-169.07 353.03,-243.24 135.77,-131.23 226.53,-220.86 283.93,-430.91 11.76,-43.03 13.03,-177.12 2.95,-223.02 -20.57,-93.72 -48.97,-131.74 -59.49,-169.01 26.14,4.65 67.31,32.76 91.85,48.14 39.78,23.3 84.71,64.68 113.84,104.72 104.69,143.88 100.7,337.77 45.46,503.86 -9.51,28.59 -55.71,134.32 -55.29,159.16 0.79,46.48 71.5,80.33 114.85,90 199.94,44.62 239.96,-35.62 319.08,-81.33 19.42,-56.7 70.48,-61.32 72.8,-207.77 4,-251.42 -242.16,-310.49 -334.4,-507.19 -113.08,-241.12 -48.33,-432.53 114.16,-606.26 21.57,-23.06 123.32,-113.15 156.52,-117.17l148.11 -111.02c134.55,-101.14 220.57,-189.36 289.74,-347.32 9.49,-21.67 22.18,-75.85 33.5,-90.59 24.7,49.09 12.47,269.53 -5.14,326.23 -23.42,75.39 -76.08,190.56 -121.2,231.17 -17.08,45.52 -122,144.03 -179.25,262.96 -94.74,196.81 -26.65,571.18 263.55,533.32 29.02,-3.79 55.69,-19.27 76.65,-32.74 37.63,-24.18 30.83,-19.59 36.71,-73.31 6.94,-63.41 5.57,-131.2 11.54,-193.96 4.66,-78.61 17.34,-164.55 41.84,-231.37 17.08,-46.59 63.33,-150.29 88.56,-171.64l-8.67 250.22 13.79 23.64c44.28,99.55 0.96,102.37 156.78,288.93 79.22,94.86 135.72,150.21 195.38,281.73 160.82,354.55 -151.08,613.48 -182.78,682.91 201.05,13.09 2187.71,19.46 2226.49,-3.97 13.71,-8.85 5.69,3.9 -42.52,-53.98 -55.18,-66.26 -100.76,-126.55 -135.85,-215.86 -86.45,-220.05 -45.68,-363.08 76.54,-548.46 30.24,-45.87 69.81,-84.79 104.64,-126.4 153.72,-183.63 148.09,-251.55 176.94,-289.83 -1.21,-15.16 11.28,-101.84 11.79,-138.87 0.56,-41.28 -1.9,-112.06 3.64,-149.29 27.49,26.56 96.37,188.09 91.97,242.21 19.98,21.73 -6.57,-23.77 10.73,15.52l20.75 234.06c3.43,122.04 -18.39,153.94 77.69,196.09 168.2,73.78 303.03,-75.89 336.57,-190.94 68.12,-233.65 -75.56,-409.14 -203.99,-578.92 -50.22,-66.39 -74.69,-129.9 -101.31,-166.72 -13.45,-110.44 -67.87,-228.06 -42.45,-413.72 35.72,31.26 87.02,254.68 305.29,419.52 29.34,22.15 122.38,86.69 136.34,108.01z"/>
  <path class="fil1" d="M4326.46 7585.96c-11.99,-64.68 -7.12,-14.16 18.23,-34.36l22.17 51.78c11.64,19.82 23.15,22.47 38.06,39.44l67.09 91.8c-35.11,-35.42 8.84,-21.14 31.83,-23.87 7.5,12.36 8.05,11.03 16.65,22.93 10.4,14.39 10.81,15.05 18.42,28.96 39.37,71.95 96.4,138.95 146.7,204.4l33.3 37.87c25.05,28.02 71.58,76.07 103.81,95.98 -0.09,-43.18 -13.91,-48.71 -34.25,-77.92 -7.62,-10.94 -16.53,-22.77 -21.4,-34.98 -12.93,-32.43 -1.71,-32.8 3.68,-37.71 -36.77,-83.62 -94.59,-173.23 -110.83,-281.93 49.87,4.22 82.11,27.82 116.69,56.1 148.99,121.84 136.32,130.31 244.24,249.21 16.32,17.98 27.55,25.51 43.07,44.4 92.88,113.01 167.8,175.93 271.91,293.05 92.29,103.82 229.1,202.06 374.87,285.48 83.63,47.86 388.1,172.46 474.87,183.07 -16.06,-23.53 -70.23,-53.41 -113.39,-90.87 -117.73,-102.17 -224.63,-206.46 -197.8,-379.16 127.63,-15.99 295,57.94 374.26,106.8 223.2,137.58 268.78,266.92 546.33,425.13 66.64,37.99 283.73,117.29 378.07,114.76l-29.14 -27.37c-70.63,-44.92 -96.81,-53.84 -155.96,-137.56 -145.46,-205.88 -36.21,-367.5 -68.46,-573.58 -20.27,-129.5 -67.48,-153.34 -110.62,-232.14 152.04,1.4 291.26,121.73 339.71,125.39 -17.64,-71.39 -135.48,-152.7 -228.67,-172.88 -68.5,-14.83 -267.39,-25.48 -347.52,-16.6 -9.68,1.07 -13.58,1.62 -22.8,4.51 -18.37,5.76 -8.79,1.53 -20.08,10.72 188.84,39.45 302.5,319.2 128.01,399.91 -35.33,16.34 -88.5,18.4 -127.06,4.54 -233.79,-84.05 -178.56,-437.88 -429.07,-771.78 -59.29,-79.02 -74.84,-56.33 -101.92,-107.68l2531.73 0.6 -73.55 72.06c-22.49,22.97 -41.95,51.58 -63.7,80.07 -139.63,182.95 -165.34,442.54 -260.29,591.27 -112.91,176.88 -284.25,187.18 -348.41,58.83 -36.57,-73.15 -7.11,-164.72 33.65,-215.48 43.31,-53.95 84.53,-81.39 160.4,-115.66l-45.03 -11.75c-14.67,-0.75 -33.39,-0.35 -48.46,-0.45 -182.28,-1.16 -446.6,-5.82 -522.53,200.18 14.32,-4.02 240.88,-143.03 343.7,-128.64 -55.68,31.45 -108.68,140.47 -120.83,224.02 -18.8,129.25 5.98,198.84 3.2,321.45 -7.17,316.7 -249.7,381.43 -266.39,419.56 236.75,-5.56 499.4,-167.11 657.9,-324.33 56.95,-56.49 202.8,-177.9 274.23,-219.57 58.22,-33.96 287.06,-145.06 372.77,-100.87 10.3,9.53 10.95,33.23 11.35,49.7 2.29,93.21 -50.34,176.36 -113.18,234.66 -35.51,32.95 -59.85,66.6 -101.15,98.01l-110.5 82.36c83.52,-4.3 403.77,-142.59 480.43,-182.42 219.94,-114.28 369.66,-278.29 543.3,-450.92 101.88,-101.29 204.48,-250.95 305.8,-346.72 38.81,-36.68 126.61,-117.79 189.15,-133.4 1.66,135.13 -91.7,259.49 -127.2,344.44 45.45,8.97 3.23,18.69 -14.98,79.93 42.92,-17.57 33.36,-25.42 63.03,-61.01 9.92,-11.9 21.72,-21.97 31.88,-32.67 5.1,-5.38 10.28,-11.28 15.05,-16.92l10.35 -12.78c63.68,-83.25 165.24,-212.77 203.24,-297.47 33.87,-75.5 57.2,-140.12 119.21,-144.08 6.18,22.41 10.86,21.79 35.92,23.52 9.34,-26.05 15.73,-41.36 24.44,-65.95 101.32,-4.69 181.18,13.21 279.53,13.59 -71.62,4.75 -196.87,-4.14 -253.56,17.33 189.13,-11.15 368.81,8.46 553.5,13.57 277.39,7.67 676.56,84.36 936.37,157.17 74.59,20.9 143.76,37.81 215.37,61.79l202.72 71.24c-7.06,-69.46 -85.89,-274.99 -110.07,-352.84 -36.73,-118.27 -74.47,-233.45 -110.91,-350.44 -24.01,-77.08 -192.76,-656.16 -217.52,-707.61l-141.38 -12.59c12.86,84.93 230.83,781.91 272.98,914.51 20.19,63.51 88.66,247.86 93.45,302.28 -87.74,-18.24 -177.29,-48.87 -263.58,-69.18 -261.72,-61.61 -555.13,-132.28 -829.48,-143.76 -205.8,-8.62 -414.92,-35.66 -620.67,-33.69 -287.52,2.75 -552.11,-90.39 -674.27,118.79 -60.01,102.76 -107.88,227.66 -165.84,319.86 -31.89,50.74 -109.26,130.05 -160.3,165.89 -238.02,167.11 -586.39,13.19 -365.05,-357.84 59.62,-99.94 209.89,-198.46 319.17,-244.96l54.3 -29.82c-73.04,-5.17 -169.83,1.91 -248.71,-0.43 -79.63,-2.35 -161.32,-2.82 -239.6,-2.54 -161.2,0.58 -324.08,-17.33 -481.7,-12.66l43.13 15.36c47.51,7.38 73.05,-7.72 97.27,17.62 -29.14,0.35 -26.18,2.31 -48.92,7.37 26.29,20.47 49.85,20.34 91.76,49.96l10.22 6.56c14.59,10.47 0.21,-0.47 14.69,12.12l17.06 14.03c9.12,5.35 0.89,4.29 18.92,6.07 -397.97,0 -795.94,0 -1193.9,0l-899.18 0.77c-50.4,-0.6 -100.78,-0.31 -151.19,-0.49l-124.89 -0.5c-1.53,-0.09 -5.16,1.48 -6.24,-0.68 -1.04,-2.11 -4.06,-0.33 -6.05,-0.75 19.91,-18.96 43.3,-22.21 87.53,-24.61 -0.89,-45.25 -12.15,-2.5 -6.93,-35.89 0.17,-1.09 14.02,-22.27 14.88,-23.52l-95.49 -17.82c31.16,-11.79 108.93,-7.88 149.41,-13.34l43.18 -13.16c-154.62,-7.13 -334.01,12.25 -493.35,14.18l-491.04 7.04c60.84,38.71 143,70.95 207.68,113.92 133.76,88.87 258.17,244.06 224.21,421.6 -39.59,206.96 -387.58,238.04 -587.93,-82.15 -78.08,-124.78 -131.8,-315.28 -244.7,-399.58 -74.02,-55.27 -176.39,-44.26 -285.67,-39.43 -106.77,4.71 -210.21,8.08 -318.3,9.27 -316.82,3.48 -857.45,41.59 -1175.25,117.64l-522.48 128.76c2.85,-47.07 77.21,-242.92 96.76,-307.18 24.98,-82.11 268.17,-864.72 271.88,-910.26 -28.89,1.98 -58.21,3.07 -87,5.38 -5.74,0.46 -28.48,3.07 -33.82,4.47 -2.09,0.55 -4.47,1.36 -6.32,1.94 -1.88,0.58 -4.72,1.92 -6.23,2.45 -1.53,0.54 -5.06,4.71 -6.16,2.87 -10.52,-17.69 -196.78,620.54 -225.86,714.73l-222.14 696.49c40.76,-20.88 150.04,-54.94 203.74,-72.16 475.84,-152.54 1223.13,-278.23 1704.58,-233.76l29.86 71.58z"/>
  <path class="fil2" d="M8795.06 954.85c26.62,36.82 51.09,100.33 101.31,166.72 128.43,169.78 272.11,345.27 203.99,578.92 -33.55,115.05 -168.38,264.71 -336.57,190.94 -96.09,-42.15 -74.27,-74.05 -77.69,-196.09l-20.75 -234.06c-17.31,-39.29 9.25,6.21 -10.73,-15.52 6.67,155.02 32.94,161.2 -30.36,309.94 -148.95,349.97 -324.73,280.1 -324.15,745.41 -75.06,-37.72 -63.05,-228.67 -52.39,-290.58 17.35,-100.68 45.3,-178.99 96.48,-248.41 92.71,-125.76 240.17,-305.73 203.01,-470.42 -28.85,38.28 -23.22,106.2 -176.94,289.83 -34.83,41.61 -74.4,80.53 -104.64,126.4 -122.22,185.38 -162.99,328.42 -76.54,548.46 35.08,89.31 80.66,149.61 135.85,215.86 48.21,57.88 56.22,45.13 42.52,53.98 -38.79,23.43 -2025.44,17.06 -2226.49,3.97 31.7,-69.44 343.6,-328.36 182.78,-682.91 -59.66,-131.53 -116.16,-186.87 -195.38,-281.73 -155.81,-186.56 -112.5,-189.38 -156.78,-288.93l-13.79 -23.64c-36.11,189.62 91.57,349.13 180.78,477 102.43,146.82 169.09,301.1 109.95,481.65 -7.71,23.55 1.85,16.27 -17.88,26.33l-10.27 -34.98c-45.77,-365.78 -229.99,-359.73 -349.47,-684.57l-34.85 -112.64c-5.97,62.76 -4.6,130.55 -11.54,193.96 -5.88,53.72 0.92,49.13 -36.71,73.31 -20.96,13.47 -47.62,28.95 -76.65,32.74 -290.2,37.86 -358.29,-336.52 -263.55,-533.32 57.25,-118.93 162.17,-217.43 179.25,-262.96 -20.52,-14.13 5.92,-32.87 19.01,-55.53 10.89,-18.85 22.49,-41.1 33.34,-62.37 12.48,-24.48 19.31,-39.69 32.42,-64.75 40.65,-77.7 -1.52,-71.58 -5.27,-74.92 -15.5,37.45 -57.54,97.55 -80.21,118.98l-272.48 213.79c-18.09,16.67 -33.49,28.18 -56.01,44.78 -99.37,91.27 -137.71,159.88 -168.74,325.54 -62.54,333.87 287.09,463.66 307.81,672.91 5.1,51.52 -28.81,166.61 -46.85,200.7 -48.86,92.35 -71.31,90.52 -112.98,134.05 -8.73,-12.49 -16.18,19.44 -4.13,-23.24 -79.12,45.72 -119.14,125.95 -319.08,81.33 -43.35,-9.67 -114.06,-43.53 -114.85,-90 -0.42,-24.84 45.78,-130.57 55.29,-159.16 55.24,-166.09 59.23,-359.98 -45.46,-503.86 -29.13,-40.04 -74.07,-81.41 -113.84,-104.72l-20.97 10.53c-0.42,-1.15 -2.65,0.38 -3.84,0.96 9.88,31.59 67.34,87.23 87.39,128.41 26.18,53.76 45.75,94.46 40.46,166.18 -8.58,116.27 -39.85,225.56 -94.14,319.54 -88.71,153.6 -118.95,194.89 -221.63,303.4 -21.57,22.79 -31.55,30.23 -55.27,48.35 -23.77,18.17 -104.77,69.85 -112.46,92.44l114.99 17.59c1.65,0.33 5.27,3.83 6.43,1.86 1.15,-1.94 4.3,1.06 6.27,2.05l-528.8 0.22 64.98 7.96c370.44,0.13 750.64,14.9 1130.18,12.89 226.63,-1.2 339.38,-33.52 438.47,-169.28 112.66,-154.35 105.3,-282.26 109.93,-494.97 94.33,36.95 243.8,186.38 290.79,299.74 101.96,245.98 -158,343.84 -174.88,364.7 231.11,9.52 479.57,5.93 712.32,7.43l1448.24 1.24c237.4,-2.99 486.16,0.14 721.79,-8.01 -5.49,-15.81 -15.83,-19.42 -33.97,-30 -364.1,-212.47 12.83,-597.89 161.89,-633.03 4.4,202.4 -17.38,312.07 126.48,518.54 91.99,132.03 302.27,142.7 511.85,144.27 429.56,3.22 859.79,-4.96 1289.22,-13.95 488.74,-10.24 1299.2,-302.76 1759.74,-504.12 77.7,-33.97 146.41,-74.03 228.73,-97.65 -39.16,99.04 -76.46,206.97 -114.36,314.25l-106.59 321.4c46.38,6.52 129,10.92 166.41,-6.44 16.66,-12.34 36.28,-97.4 43.01,-118.14 52.92,-163.2 302.29,-815.81 308.35,-839.08 -32.58,7.18 -393.17,187.79 -444.24,211.08 -152.93,69.74 -300.81,132.14 -462.49,197.32 -162.27,65.42 -314.28,124.2 -476.72,183.19 -256.78,93.25 -773.75,241.66 -1043.12,269.14 -123.27,12.57 -249.74,-72.44 -343.31,-136.2 -41.17,-28.05 -155.69,-110.54 -184.1,-142.13 -18.26,-20.3 -22.34,-25.8 -37.87,-41.72 -65.93,-67.63 -124.49,-116.04 -179.01,-242.21 -123.85,-286.65 8.77,-442.36 22.49,-524.32 -123.03,57.95 -190.98,95.97 -251.33,218.96 -96.15,195.96 -55.71,370.47 37.77,567.36 59.34,124.99 -160.02,164.53 -287.14,129.71 -103.66,-28.39 -108.62,-70.9 -156.16,-92.85 11.18,28.85 8.58,13.77 -0.04,26.88 -103.72,-74.3 -174.39,-220.87 -132.17,-379.37 31.71,-119.04 155.79,-212.56 221.49,-313.75 35.99,-55.43 65.63,-121.9 66.87,-199.95 1.09,-68.94 -5.42,-181.56 -26.86,-234.89 -40.01,-99.53 -187.7,-265.85 -242.68,-282.71 -43.66,-23.54 -226.01,-169.52 -252.52,-206.54 -13.89,-19.39 -22.95,-33.24 -30.63,-48.25 -20.49,-40.01 -12.18,-30.3 -41.11,-47.51 2.38,73.41 22.63,54.79 15.83,88.61 -6.12,30.44 24.23,-0.5 -13.73,22.71z"/>
  <path class="fil3" d="M6636.32 5037.03l-2.72 -553.99 317.48 -0.46c-6.97,238.5 -12.49,669.53 1.99,897.56 7.66,120.61 26.18,102.93 58.89,187.47l-429.83 -7.16 37.94 -93.65c18.87,-64.37 16.44,-355.47 16.26,-429.77zm-1049.06 -262.97c6.89,-57.83 115.45,-729.27 118.19,-734.38 7.97,14.17 120.96,804.9 118.96,859.63 -70.6,-39.59 -153.26,-91.01 -237.15,-125.25zm245.58 -284l327.76 -1.67c11,149.69 114.71,630.88 153.57,840.46 30.88,166.54 67.35,208.8 77.34,255.23 -74.23,1.99 -361.74,19.87 -409.43,4.25l-47.95 -340.93 -466.75 -124.12 -104.68 508.62 -410.49 10.91c36.66,-89.49 71.8,-140.72 97.29,-258.28 44.41,-204.83 180.34,-758.76 192.76,-882.29l335.83 -5.76 -52.24 313.39c114.26,28.82 250.76,138.3 356.81,161.86 5.26,-134.96 -54.37,-414.75 -49.83,-481.66zm1711.56 1070.72c-63.13,-174.62 -127.43,-360.07 -199.21,-540.4l-209.27 -538.42 307.77 3.79c3.98,23.51 106.03,280.77 140.07,308.06 3.99,-78.25 10.97,-241.62 -0.33,-312.64l346.52 1.55c-9.06,78.95 -0.61,195.34 0.87,275.54 1.67,90.33 5.52,180.54 7.38,270.82 1.87,90.45 -2.72,186.51 1.77,275.52 4.17,82.53 12.5,167.13 6.93,259.28l-402.51 -3.1zm-2689.74 135.66l552.61 -20.15 103.98 -492.87c45.3,5.1 130,37.68 178.21,52.63 67.52,20.94 125.16,33.14 197.71,48.12l48.51 363.23c92.02,0.91 195.24,-9.89 286.68,-12.81 99.65,-3.18 199.57,-0.16 298.84,-3.64 201.64,-7.06 388.7,-15.17 592,-14.47l-68.18 -104.79c-33.72,-55.26 -39.64,-63.34 -39.13,-140.28 2.32,-345.57 -13.92,-747.48 -3.69,-1073.82 58.08,62.85 422.53,1098.99 510.42,1311.64l486.39 -0.18c3.62,-190.27 -6.56,-393.71 -8.17,-587.95 -1.63,-197.65 0.18,-397.54 -4.88,-594.86 -4.57,-178.25 -24.58,-713.17 -12.39,-877.61 4.78,-64.59 57.47,-159.65 79.6,-224.76l-639.92 2.07c19.09,71.24 100.63,155.47 113.68,231.79 12.08,70.66 11.78,902.58 13.59,1021.56 -37.15,-27.87 -112,-253.81 -129.87,-300.62 -40.07,-104.97 -77.86,-205.08 -119.08,-310.54 -61.22,-156.62 -200.24,-483.89 -224.12,-634.61l-571.75 -5.96c25,58.24 75.08,152.85 95.1,211.48 13.59,39.8 -3.27,847.41 -3.34,933 -0.18,235.89 4.85,704.37 -8.1,930.72 -2.78,48.55 -23.61,77.42 -42.44,115.76l-39.36 79.74c-15.66,23.09 2.47,8.52 -20.26,18.94 -92.32,-107.33 -128.22,-396.95 -154.94,-535.71l-218.92 -1166.45c-35.74,-191.77 -82.6,-399.9 -108.77,-590.1 -113.46,3.49 -231.37,0.88 -345.01,-1.8 -102.5,-2.42 -225.72,-17.1 -324.93,-11.54 24.25,108.84 95.88,147.92 66.17,281.37l-203.59 926.12c-62.21,275.78 -137.97,660.57 -205.94,923.32 -13.81,53.39 -32.88,92.96 -57.69,133.78 -20.02,32.94 -55.4,90.33 -69.01,120.23z"/>
  <path class="fil3" d="M2407.61 5854.04c-30.36,12.51 -442.55,58.8 -480.89,55.85 19.15,-29.69 56.54,-67.78 74.13,-105.42 18.42,-39.39 21.01,-120.24 24.17,-166.97l47.09 -698.15c3.67,-70.88 11.85,-301.44 26.79,-350.02l312.25 -14.97c-32.44,213.47 -25.21,450.72 -46.78,669.58 -10.58,107.37 -15.13,218.34 -20.77,326.41 -6.35,121.67 21.78,195.83 64.01,283.68zm-1324.44 183.91c-72.25,20.99 -494.28,120.5 -547.58,119.66 36.91,-42.1 115.96,-215.83 126.53,-300.79l100.84 -1210.44 364.24 -18.88c-29.29,180.78 -21,362.67 -44.15,536.96l-42.79 540.87c-12.89,162.04 -6.78,198.46 42.92,332.63zm460.57 -636.29c-12.14,-20.99 -176.78,-724.38 -179.76,-783.12l491.46 -23.09c-28.81,113.3 -275.03,756.4 -311.7,806.21zm-1098.92 838.54l708.18 -168.27c-68.7,-243.37 -80.27,-73.81 -50.42,-417.5 36.67,-422.23 92.75,-1027.56 105.83,-1422.38 29.2,38.29 263.57,1222.64 327.37,1330.87 49.04,-73.56 219.45,-541.31 265.01,-658.69 36.97,-95.24 232.9,-617.88 265.58,-654.06 1.36,59.53 -12.59,160.46 -16.77,227.56l-79.52 1164.19c-6.37,106.96 1.92,114.22 -51.51,191.65l-103.44 149.75 659.56 -82.01c-7.25,-37.02 -31.9,-91.31 -46.86,-133.13 -26.18,-73.2 -36.95,-72.18 -29.39,-157.54 10.25,-115.68 14.27,-242.05 20.83,-359.09 25.97,-463.02 75.61,-976.48 93.37,-1431.84 2.33,-59.83 12.39,-320.16 28.19,-355.98 37.71,-85.45 93.02,-175.17 137.21,-238.23l-664.86 -25.64c-21.21,34.79 -69.67,212.23 -85.57,263.51 -73.35,236.62 -166.42,496.91 -235.21,727.85l-18.21 53.03c-7.71,12.46 -3.67,6.46 -11.11,13.46 -19.18,-39.42 -150.93,-950.47 -188.8,-1084.06 -54,-21.11 -702.74,-46.64 -860.87,-68.27 17.52,89.54 201.42,411.63 193.48,486.7 -7.24,68.5 -13.36,140.48 -21.35,209.96 -31.65,275.3 -50.36,568.73 -73.36,846.87 -9.48,114.68 -94.77,1208.66 -117.58,1269.39 -42.03,111.92 -111.91,212.47 -149.8,321.88z"/>
  <path class="fil3" d="M10796.05 4663.03c41.93,186.26 110.46,381.94 163.82,562.79 35.85,121.51 126.38,477.59 194.22,532.02l-465.1 -35.19c68.19,-117.03 56.38,-151.19 12.85,-287.78 -29.82,-93.58 -58.94,-189.04 -86.84,-278.83 -29.43,-94.73 -53.82,-188.19 -83.45,-282.05 -27.86,-88.26 -54.15,-200.1 -83.94,-279.98l-242.1 -9.61 48.93 883.4c20.14,178.78 36.68,138.8 83.5,229.33l-506.44 -18.49c22.14,-101.33 61.31,-77.06 58.28,-259.66 -1.64,-98.76 -8.64,-198.84 -12.37,-298.34 -7.13,-190.11 -9.65,-415.51 -27.89,-602.21l1108.37 22.06c-15.78,42.44 -99.98,78.75 -138.12,104.62l-23.72 17.92zm-543.68 -372.37l-26.57 -605.45c367.8,-20.43 367.69,1.22 371.96,301.34 1.08,75.65 33.51,271.87 -22.77,301.82 -29.69,15.79 -285.18,12.7 -322.61,2.29zm-629.06 -977.56c18.42,34.8 43.21,58.6 64.69,96.9 93.07,165.9 64.43,218.45 77.71,433.6 13.29,215.33 11.9,438.51 28.19,654.06 16.06,212.55 19.28,429.37 31.09,642.64 5.91,106.64 16.59,229.13 14.96,334.65 -1.45,93.69 -79.04,180 -88.34,250.46 114.17,7.19 230.23,5.44 346.52,12.95 113.98,7.37 229.54,17.17 342.31,23.71 -25.81,-64.84 -104.89,-145.41 -122.47,-196.57 -9.72,-28.31 -33.96,-543.59 -37.22,-616 -3.84,-85.2 -23.91,-232.84 -15.96,-308.27l138.17 2.93c28.15,54.74 227.23,736.24 264.88,857.69 23.31,75.19 28.8,66.9 0.33,137.11 -13.65,33.66 -52.15,107.54 -52.17,135.74 207.6,0.64 427.04,33.46 632.33,52.93 -46.37,-96.94 -92.69,-141.28 -129.15,-260.07 -81.44,-265.28 -197.31,-631.9 -263.88,-882.71 84.78,-57.55 156.13,-73.32 195.11,-183.34 27.52,-77.65 10.74,-259.96 7.14,-352.77 -4.62,-119.02 -10.62,-243.2 -17.85,-361.48 -13.32,-218.02 1.48,-409.06 -290.67,-483.71 -121.61,-31.07 -977.39,2.9 -1125.71,9.55z"/>
  <path class="fil3" d="M3956.98 5705.73l-542.51 33.13c45.93,-98.34 78.37,-112.42 86.6,-248.06 9.03,-148.65 49.22,-916.27 63.11,-949.08l350.83 -7.99c-11.97,309.83 -39.72,619.89 -43.04,925.04 -0.61,56.48 -4.5,98.59 20.66,141.74 21.12,36.22 52.55,66.61 64.34,105.23zm682.25 -1184.71c-13.03,32.46 -105.01,87.22 -145.97,100.28 1.71,114.32 86.4,407.06 120.44,528.78 67.2,240.34 68.43,268.48 160.61,504.48l-441.28 11.61c13.58,-50.54 48.96,-77.7 52.55,-127.98 5.77,-80.78 -200.05,-736.9 -216.64,-1014.22l470.29 -2.94zm-1301.66 1276.07l706.89 -46.82c-20.26,-59.76 -77.54,-118.31 -109.68,-175.9 -30.25,-54.21 21.26,-719.66 24.86,-811.87 14.33,-367.13 37.49,-733.03 52.93,-1100.15 95.47,-8.06 323.08,-19.05 358.43,90.92l-25.53 416.5c-5.92,55.05 -17.88,72.48 -72.57,78.29 -49.02,5.21 -99.78,-3.66 -147.96,3.77 -27.12,416.28 1.31,419.36 92.82,792.68 29.88,121.89 58.76,242.67 89.67,364.01 20.22,79.35 39.87,101.79 7.86,171.9 -39.44,86.39 -71.14,123.44 -81.87,148.13l606.84 -23.19c9.63,-27.42 -68.4,-186.81 -83.63,-236.87 -26.61,-87.52 -47.93,-180.37 -72.51,-269.84 -26.73,-97.31 -135.05,-466.37 -134.3,-543.58 18.21,-12.29 34.49,-19.71 50.71,-30.82 142.7,-97.76 197.63,-173.17 205.16,-366.89 29.68,-763.95 174.07,-948.19 -508.52,-965.48 -279.21,-7.07 -564.18,-21.41 -844.4,-33.19 31.35,74.05 92.97,162.76 109.3,252.72 8.82,48.6 -85.88,1515.31 -94.52,1692.12 -4.81,98.53 -7.81,240.05 -21.93,334.11 -12.05,80.28 -80.84,178.53 -108.06,259.43z"/>
  <path class="fil3" d="M9538.34 5363.27c0.25,125.79 -29.96,244.64 -188.05,256.34 -130.16,9.64 -711.05,-9.64 -826.59,-42.61 -129.83,-37.05 -182.55,-86.66 -195.3,-234.54 -23.94,-277.64 -4.24,-573.99 -20.85,-856.54l376.77 -0.77c-2.85,171.59 9.51,334.16 11.74,506.62 3.52,272.15 9.61,276.77 224.09,282.18 254.72,6.44 247.78,-19.94 242.41,-268.77 -3.48,-161.52 0.79,-343.48 -12.93,-502.18 77.7,3.25 307.34,-6.95 362.11,8.82l26.6 851.44zm-678.66 -1665.29c247.15,-13.82 206.95,25.75 217.19,248.63l32.24 938.9c11.49,246.31 49.93,349.08 -117.19,346.31 -50.45,-0.83 -196.42,1.98 -219.27,-32.24 -21.99,-32.92 -32.39,-626.42 -33.63,-687.39 -3.23,-159.09 -1.31,-319.3 -9.06,-477.83 -13.92,-284.61 -43.09,-326.72 129.72,-336.38zm-200.55 -374.77c-170.99,6.73 -226.47,-7.54 -347.37,118.51 -84.22,87.81 -69.16,252.98 -69.02,393.74 0.43,451.11 28.91,910.29 32.82,1352.76 1.47,166.23 -14.01,250.95 99.43,362.26 89.29,87.62 213.3,94.75 362.21,97.31 151.11,2.6 302.25,12.85 453.54,15.43 177.41,3.03 271.67,10.11 353.49,-105.77 73.36,-103.9 53.93,-261.76 47.84,-401.61l-45.74 -1344.47c-4.87,-205.46 -14.28,-398.59 -221.56,-468.42 -125.62,-42.32 -529.71,-25.1 -665.65,-19.75z"/>
  <path class="fil3" d="M12859.14 4581.58l726.67 36.78 16.93 224.01 -363.69 -29.91c6.59,159.22 19.94,317.82 32.98,471.89 12.48,147.54 39.27,327.33 39.02,472.23l530.87 99.06c14.21,100.74 118.14,269.21 133.41,373.06 -88.7,-18.22 -190.79,-46.51 -280.4,-66.48l-785.16 -171.55c-12.09,-9.58 -12.88,0.94 15.39,-84.43 47.52,-143.52 -4.66,-481.23 -17.47,-654.16 -16.5,-222.73 -29.95,-447.57 -48.55,-670.49zm-242.97 -1384.64c20.06,94.78 106.5,168.28 118.21,286.79 11.68,118.12 19.66,249.16 26.38,368.29 35.26,626.02 84.45,1234.18 133.02,1856.63 15.11,193.61 -6.97,126 -76.68,315.08 45.7,21.2 250.77,53.15 317.73,66.35 106.15,20.92 210.65,44.38 313.87,67.63 104.62,23.56 208.77,45.49 310.94,71.77 94.79,24.38 216.25,60.44 307.58,77.34 -0.69,-25.32 -167.18,-436.3 -192.44,-495.11l-508.12 -99.51 -72.96 -844.37 371.07 34.01 -43.81 -531.89c-85.56,-13.62 -298.06,7.44 -356.36,-17.07l-53.35 -663.27 472.49 -33.63 23.1 -31.32c7.31,-14.14 10.56,-26.85 16.04,-39.6 48.24,-112.33 224.81,-438.93 235.84,-488.56 -318.11,42.05 -1011.65,87.59 -1342.52,100.43z"/>
  <path class="fil3" d="M11682.92 4546.88l361.7 10.93c-4,140.21 32.06,539.19 40.34,714.06 5.38,113.52 12.39,238.16 24.65,348.15 16.91,151.76 53.09,181.2 91.79,294.34 -85.71,-8.63 -453.69,-66.83 -530.58,-88.97l64.74 -105.62c15.95,-58.59 -14.1,-431.05 -19.19,-503.83 -15.54,-222.04 -19.8,-445.87 -33.45,-669.05zm-710.99 -1267.78c11.28,32.22 41.61,63.05 62.89,104.73l143.06 356.1 417.07 -18.47c-0.77,185.28 14.14,382.11 23.34,567.94l75.12 1396.76c-9,42.7 -98.78,178.41 -90.19,192.99 1.92,1.11 652.22,102.83 697,104.76 -27.61,-63.9 -68.71,-140.16 -101.2,-207.3 -46.48,-96.04 -37.98,-163.73 -43.09,-278.35 -17.02,-381.48 -47.4,-804.57 -72.58,-1188.86 -12.97,-197.96 -13.89,-409.1 -36.23,-602.25l431.18 -22.8c17.88,-77.27 32.5,-160.59 50.6,-242.47 17.98,-81.31 45.59,-168.27 60.28,-243.07 -427.25,31.54 -1208.55,86.97 -1617.26,80.31z"/>
  <path class="fil4" d="M9511.74 4511.84c-54.77,-15.76 -284.42,-5.57 -362.11,-8.82 13.72,158.7 9.44,340.66 12.93,502.18 5.37,248.83 12.31,275.21 -242.41,268.77 -214.48,-5.42 -220.57,-10.04 -224.09,-282.18 -2.23,-172.46 -14.59,-335.03 -11.74,-506.62l-376.77 0.77c16.61,282.55 -3.09,578.9 20.85,856.54 12.75,147.88 65.47,197.49 195.3,234.54 115.54,32.97 696.43,52.25 826.59,42.61 158.08,-11.7 188.29,-130.55 188.05,-256.34l-26.6 -851.44z"/>
  <path class="fil4" d="M6314.17 5328.84c-38.86,-209.58 -142.57,-690.77 -153.57,-840.46l-327.76 1.67c-4.54,66.9 55.09,346.7 49.83,481.66 -106.05,-23.55 -242.54,-133.04 -356.81,-161.86l52.24 -313.39 -335.83 5.76c-12.42,123.53 -148.35,677.46 -192.76,882.29 -25.49,117.57 -60.63,168.79 -97.29,258.28l410.49 -10.91 104.68 -508.62 466.75 124.12 47.95 340.93c47.68,15.63 335.2,-2.25 409.43,-4.25 -9.99,-46.43 -46.46,-88.68 -77.34,-255.23z"/>
  <path class="fil4" d="M10819.77 4645.11c38.14,-25.87 122.34,-62.18 138.12,-104.62l-1108.37 -22.06c18.24,186.7 20.76,412.1 27.89,602.21 3.73,99.5 10.73,199.58 12.37,298.34 3.03,182.6 -36.14,158.33 -58.28,259.66l506.44 18.49c-46.82,-90.53 -63.35,-50.55 -83.5,-229.33l-48.93 -883.4 242.1 9.61c29.78,79.88 56.08,191.72 83.94,279.98 29.63,93.87 54.02,187.32 83.45,282.05 27.9,89.79 57.02,185.25 86.84,278.83 43.53,136.59 55.34,170.75 -12.85,287.78l465.1 35.19c-67.85,-54.43 -158.37,-410.51 -194.22,-532.02 -53.36,-180.85 -121.9,-376.53 -163.82,-562.79l23.72 -17.92z"/>
  <path class="fil4" d="M13272.03 5284.35c-13.04,-154.07 -26.4,-312.67 -32.98,-471.89l363.69 29.91 -16.93 -224.01 -726.67 -36.78c18.61,222.92 32.06,447.76 48.55,670.49 12.81,172.93 64.99,510.64 17.47,654.16 -28.27,85.37 -27.47,74.86 -15.39,84.43l785.16 171.55c89.61,19.97 191.7,48.25 280.4,66.48 -15.27,-103.84 -119.2,-272.31 -133.41,-373.06l-530.87 -99.06c0.25,-144.9 -26.53,-324.69 -39.02,-472.23z"/>
  <path class="fil3" d="M6846.34 2091.43c91.49,-101.65 116.72,-109.45 214.11,-234.67 22.16,-28.49 167.59,-249.28 196.69,-267.03 50.84,57.32 151.16,221.41 242.9,316.06l53.49 57.92c36.84,34.12 62.71,82.26 105.35,119.77 -64.3,-40.83 -131.68,-85.51 -197.63,-131.28 -34.18,-23.72 -168.51,-134.68 -210.41,-127.02 -31.81,5.81 -336,229.99 -404.49,266.27zm638.47 -605.92c60.87,-18.1 411.45,-220.55 533.93,-257.12l-248.55 207.62c-29.14,23.27 -49.82,45.99 -80.39,70.8 -96.6,78.38 -91.12,66.99 -60.46,197.86l47.59 252.27 -192.13 -471.43zm-589.3 182.16c6.41,-50.43 33.94,-79.45 -6.11,-114.24l-385.36 -324.43c38.9,18.2 87.14,34.92 128.39,55.49 41,20.45 79.46,42.07 120.78,62.22 55.95,27.28 211.17,91.43 253.43,125.4 -9.35,56.01 -127.16,371.55 -153.47,435.52l42.34 -239.96zm-499.49 -495.94c8.51,17.4 0.12,11.42 31.39,32.63l335.39 276.84c20.54,16.42 45.85,36.17 61.23,50.23 26.69,24.4 31,31.96 59.48,50.85 -7.27,110.53 -79.25,397.48 -123.71,514.44 -20.17,53.06 -52,99.22 -65.98,144.81 29.56,-12.33 543.13,-394.3 563.33,-396.92 30.85,-4 479.93,340.21 562.45,390.07 -11.08,-41.56 -43.5,-90.16 -62.28,-141.1 -29.72,-80.61 -133.82,-476.08 -118.71,-510.06 38.15,-38.08 82.91,-67.82 119.31,-104.01 24.05,-23.9 33.76,-25.27 60.45,-50.85 92.71,-88.82 229.83,-178.87 307.08,-250.98l-636.13 -2.86c-55.16,-95.58 -147.21,-340.33 -181.64,-461.39 -15.08,-53.01 -21.72,-127.56 -42.59,-172.58 -17.7,28.34 -65.76,231.33 -86.68,287.51 -33.35,89.53 -71.42,176.69 -109.33,264.71 -42.82,99.41 13.78,81.91 -289.39,81.72 -128.25,-0.08 -255.59,2.26 -383.68,-3.07z"/>
  <path class="fil3" d="M3183.03 4551.55c-4.85,269.49 -37.33,667.35 -53.8,962.85 -12.16,218.19 32.19,151.32 78.73,253.25l-541 49.77c49.86,-113.97 82.55,-54.75 95.31,-259.78 13.39,-215.04 63.66,-828.34 60.02,-1001.76l360.74 -4.34zm-623.67 1340.08c119.77,-13.33 237.7,-30.93 357.44,-44.92 123.91,-14.48 252.39,-17.45 373.63,-33.79 -8.01,-53.25 -116.52,-127.84 -111.03,-227.1 18.4,-332.85 32.91,-721.29 60.03,-1041.82 18.94,-223.88 29.87,-466.96 38.63,-692.62l17.78 -349.04c10.75,-82.83 109.33,-208.27 107.76,-252.18l-652.22 -23.27c33.22,100.86 82.06,183.4 81.49,298.19 -0.61,122.84 -12.67,236.62 -17.72,358.28 -9.7,233.39 -28.72,473.83 -44.15,707.84 -15.51,235.18 -24.48,473.44 -44.84,708.14 -9.4,108.39 -8.44,245.1 -23.25,349.19 -7.78,54.69 -115.39,175.82 -143.54,243.1z"/>
  <path class="fil4" d="M7544.4 5560.77l402.51 3.1c5.57,-92.15 -2.76,-176.75 -6.93,-259.28 -4.5,-89.01 0.09,-185.07 -1.77,-275.52 -1.87,-90.28 -5.72,-180.49 -7.38,-270.82 -1.48,-80.19 -9.93,-196.58 -0.87,-275.54l-346.52 -1.55c11.3,71.02 4.32,234.38 0.33,312.64 -34.04,-27.3 -136.09,-284.56 -140.07,-308.06l-307.77 -3.79 209.27 538.42c71.78,180.33 136.08,365.78 199.21,540.4z"/>
  <path class="fil4" d="M1083.17 6037.95c-49.71,-134.17 -55.81,-170.6 -42.92,-332.63l42.79 -540.87c23.16,-174.29 14.86,-356.18 44.15,-536.96l-364.24 18.88 -100.84 1210.44c-10.57,84.96 -89.61,258.7 -126.53,300.79 53.29,0.84 475.33,-98.67 547.58,-119.66z"/>
  <path class="fil0" d="M8859.68 3697.98c-172.82,9.66 -143.65,51.77 -129.72,336.38 7.75,158.54 5.83,318.75 9.06,477.83 1.24,60.97 11.64,654.47 33.63,687.39 22.86,34.22 168.83,31.41 219.27,32.24 167.12,2.77 128.68,-99.99 117.19,-346.31l-32.24 -938.9c-10.24,-222.88 29.96,-262.45 -217.19,-248.63z"/>
  <path class="fil4" d="M11682.92 4546.88c13.66,223.18 17.91,447.01 33.45,669.05 5.09,72.78 35.13,445.24 19.19,503.83l-64.74 105.62c76.9,22.14 444.88,80.33 530.58,88.97 -38.7,-113.13 -74.88,-142.57 -91.79,-294.34 -12.25,-109.99 -19.27,-234.63 -24.65,-348.15 -8.28,-174.87 -44.34,-573.84 -40.34,-714.06l-361.7 -10.93z"/>
  <path class="fil5" d="M3910.45 2860.82c1.56,-1.78 3.99,-3.82 5.1,-4.94 1.04,-1.05 3.54,-3.44 4.73,-4.68 1.05,-1.09 3.06,-3.08 4.11,-4.22l13.82 -18.7 -57.92 -28.11c35.86,4 40.99,10.98 75.16,3.11 -25.19,-14.39 -293.24,-55.88 -349.88,-68.15 -114.28,-24.76 -224.37,-52.82 -335.33,-85.53 -532.77,-157.06 -723.07,-247.15 -1219.54,-451.47l-427.5 -201.31c-37.28,-20.07 -105.48,-61.11 -144.55,-73.08 89.39,221.51 235.17,607.14 304.02,846.21 5.38,18.66 11.68,42.24 17.59,60.31 1.28,3.92 9.4,28.93 10.35,31.18 18.39,43.87 34.39,29 177.71,34.92 -2.54,-81.59 -205.21,-571.56 -209.25,-631.79 51.66,12.26 398.71,165.13 483.41,199.7 443.51,181.01 1171.06,416.12 1647.97,396.56z"/>
  <path class="fil4" d="M2822.29 4555.89c3.64,173.42 -46.63,786.72 -60.02,1001.76 -12.77,205.03 -45.45,145.81 -95.31,259.78l541 -49.77c-46.53,-101.93 -90.89,-35.05 -78.73,-253.25 16.47,-295.5 48.95,-693.36 53.8,-962.85l-360.74 4.34z"/>
  <path class="fil4" d="M3956.98 5705.73c-11.79,-38.62 -43.21,-69.01 -64.34,-105.23 -25.16,-43.15 -21.27,-85.26 -20.66,-141.74 3.32,-305.15 31.08,-615.21 43.04,-925.04l-350.83 7.99c-13.89,32.81 -54.09,800.44 -63.11,949.08 -8.24,135.64 -40.68,149.71 -86.6,248.06l542.51 -33.13z"/>
  <path class="fil4" d="M2407.61 5854.04c-42.22,-87.86 -70.35,-162.01 -64.01,-283.68 5.64,-108.07 10.19,-219.04 20.77,-326.41 21.57,-218.86 14.34,-456.11 46.78,-669.58l-312.25 14.97c-14.94,48.58 -23.12,279.14 -26.79,350.02l-47.09 698.15c-3.15,46.73 -5.75,127.58 -24.17,166.97 -17.6,37.64 -54.99,75.73 -74.13,105.42 38.34,2.95 450.53,-43.34 480.89,-55.85z"/>
  <path class="fil4" d="M4168.94 4523.96c16.59,277.32 222.41,933.43 216.64,1014.22 -3.59,50.28 -38.97,77.45 -52.55,127.98l441.28 -11.61c-92.19,-236 -93.41,-264.14 -160.61,-504.48 -34.04,-121.72 -118.73,-414.46 -120.44,-528.78 40.96,-13.06 132.94,-67.82 145.97,-100.28l-470.29 2.94z"/>
  <path class="fil6" d="M6921.52 6619.8c62.6,-5.21 381.61,-10.02 427.81,2.72 4.34,68.53 12.6,229.17 -12.5,292.38 -14.49,36.5 -27.47,35.59 -51.77,59.25 -82.96,80.75 -236.83,63.65 -370.08,62.71 -182.94,-1.29 -438.52,40.48 -454.76,-193.14 -3.87,-55.61 -8.69,-163.48 -2.65,-215.22 42.12,-15.19 160.95,-16.22 209.98,-8.95 -11,227.13 3.4,248.7 111.78,253.19 78.27,3.25 293.98,6.19 356.14,-15.21 6.13,-46.36 14.43,-104.99 2.56,-147.81l-218.07 -7.66 1.56 -82.26zm458.61 -58.68c-49.46,-11.86 -419.92,-8.02 -487.2,-2.6l-2.87 173.04 223.41 0.11c4.43,139.58 4.06,111.09 -214.41,111.57 -242.05,0.54 -197.96,28.13 -199.41,-246.58 -0.37,-70.66 -18.5,-168.24 38.43,-192.45 25.51,-10.85 306.77,-13.62 339.31,-1.42 37.94,14.24 31.18,36.29 38.91,79.55l265.86 4.15c-7.46,-157.55 -30.37,-239 -167.89,-276.37 -107.74,-29.28 -509.04,-34 -632.78,5.53 -207.03,66.13 -158.53,296.32 -157.03,516.55 1.09,160.08 16.77,248.05 138.85,303.71 96.49,43.98 305.58,34.17 423.29,30.99 366.34,-9.89 424.41,-77.42 393.54,-505.78z"/>
  <path class="fil4" d="M6636.32 5037.03c0.18,74.29 2.61,365.4 -16.26,429.77l-37.94 93.65 429.83 7.16c-32.71,-84.54 -51.23,-66.86 -58.89,-187.47 -14.48,-228.03 -8.95,-659.06 -1.99,-897.56l-317.48 0.46 2.72 553.99z"/>
  <path class="fil6" d="M4599.41 6644.46c133.09,14.62 537.37,-59.05 646.36,-34.96 2.25,38.63 7.43,91.11 -5.73,118.74 -50.52,23.4 -392.6,-0.34 -453.77,32.86l-1.46 315.03 -185.23 -6.21 -0.17 -425.45zm-32.9 -449.16l-5.81 904.73 256.57 6.23 -0.25 -322.9 450.22 -16.71 0.25 -210.05 -455.14 0.65 -1.25 -154.3c110.46,3.73 226.62,9.19 337.35,3.49 57.79,-2.97 289.08,-3.55 322.06,-12.8l5.63 -194.81c-26.55,-8.72 -382.46,7.59 -447.06,7.84 -151.17,0.6 -312.92,1.37 -462.56,-11.38z"/>
  <path class="fil6" d="M7868.49 7060.65c-20.08,-18.34 3.5,-6.13 -30.19,-13.57l-71.01 -1.55 0.85 -431.63c72.74,-14.67 817.37,-0.45 868.75,19.14l11.23 400.07 -197.29 0.3 -6.77 -288.81c-31.97,-17.07 -404.88,-9.98 -476.74,-9.69l-2.01 284.08c3.14,21.72 -8.54,16.38 11.82,17.6 -9.14,0.26 -27.62,-0.03 -35.87,1.17l49.78 9.72c13.35,-23.22 4.45,-228.5 3.87,-285.52l420.74 1.87 2.79 294.06 264.7 6.02 -11.8 -867.59 -253.21 0.77 -0.96 340.73 -423.74 5.24 1.78 -348.02 -260.72 3.28 -0.97 865.15 134.97 -2.82z"/>
  <path class="fil7" d="M8238.72 7319.05l-1944.72 -0.88 -43.18 13.16c-40.47,5.45 -118.25,1.54 -149.41,13.34l95.49 17.82c-0.86,1.25 -14.71,22.43 -14.88,23.52 -5.22,33.39 6.04,-9.36 6.93,35.89 -44.23,2.4 -67.62,5.65 -87.53,24.61 1.99,0.42 5.01,-1.36 6.05,0.75 1.08,2.17 4.71,0.6 6.24,0.68l124.89 0.5c50.41,0.18 100.79,-0.12 151.19,0.49l899.18 -0.77c397.97,0 795.94,0 1193.9,0 -18.03,-1.78 -9.81,-0.72 -18.92,-6.07l-17.06 -14.03c-14.48,-12.59 -0.1,-1.65 -14.69,-12.12l-10.22 -6.56c-41.91,-29.62 -65.47,-29.5 -91.76,-49.96 22.74,-5.07 19.78,-7.02 48.92,-7.37 -24.23,-25.34 -49.76,-10.24 -97.27,-17.62l-43.13 -15.36z"/>
  <path class="fil3" d="M9378.38 7054.51c-11.38,-47.33 -4.71,-341.18 -1.83,-410.78l184.71 4.21c4.61,71.85 14.52,358.1 -0.79,412.59 -47.58,1.2 -147.16,8.15 -182.09,-6.02zm-345.61 -647.42l307.24 -1.53 0.99 675.72 255.87 0.15 -8.52 -677.56 319.64 7.94 -10.28 -211.04c-138.2,-3.69 -293.82,7.15 -436.37,6.18 -144.77,-0.98 -295.04,-3.01 -439.3,-13.39l10.73 213.53z"/>
  <path class="fil8" d="M6919.95 6702.06l218.07 7.66c11.88,42.81 3.57,101.45 -2.56,147.81 -62.16,21.4 -277.87,18.46 -356.14,15.21 -108.38,-4.5 -122.78,-26.06 -111.78,-253.19 -49.03,-7.28 -167.86,-6.25 -209.98,8.95 -6.04,51.74 -1.22,159.61 2.65,215.22 16.24,233.61 271.82,191.85 454.76,193.14 133.25,0.94 287.13,18.04 370.08,-62.71 24.3,-23.65 37.28,-22.75 51.77,-59.25 25.1,-63.21 16.85,-223.85 12.5,-292.38 -46.2,-12.74 -365.21,-7.93 -427.81,-2.72l-1.56 82.26z"/>
  <path class="fil6" d="M7268.27 9771.67c74.09,0 70.8,-66.37 109.43,-126.11l99.95 -138.77c40.53,-39.09 72.87,-39.2 135.64,-103.09 60.73,-61.81 133.62,-91.14 221.97,-136.12l416.57 -180.23c43.9,-11.61 72,-36.32 178.13,-68.55 37.87,-11.5 41.83,-22.79 80.84,-38.52l178.88 -59.84c31.62,-11.78 46.66,-23.93 81.48,-37.88 31.84,-12.76 60.59,-16.36 90.28,-29.09 29.65,-12.71 20.45,-16.11 80.18,-39.18 31.64,-12.22 63.23,-15.69 89.67,-29.69 17.46,-9.25 19.96,-13.13 41.28,-22.38 23.85,-10.35 21.22,-9.93 42.06,-21.6l169.42 -69.31c36.41,-15.46 47.06,-24.1 80.68,-38.68 102.79,-44.57 159.26,-95.05 264.27,-149.51 152.24,-78.95 130.11,-75.21 257.25,-172.45 68.95,-52.74 17.59,11.91 134.11,-104.61 36.57,-36.58 88.41,-82.01 118.75,-119.98 18.75,-23.46 29.63,-49.96 46.15,-73.21 18.86,-26.54 42.96,-40.52 60.62,-66.7 19.21,-28.47 21.91,-45.51 45.49,-73.87 82.6,-99.32 65.33,-184.49 252.11,-129.69 79.22,23.24 197.03,16.35 286.75,15.63 72.56,-0.58 53.71,6.46 106.54,20.77 61.25,16.59 158.76,-1.31 217.45,21.27 77.39,29.78 80.78,12.05 196.42,42.3 70.94,18.56 41.18,-6.49 145.6,29.46 13.61,4.68 161.9,33.23 247.95,62.39 146.96,49.81 129.26,21.7 269.09,88.99 26.11,12.56 62.69,18.44 90.11,29.26 34.41,13.57 51.56,26.28 80.52,38.84 45.56,19.76 193.56,107.51 229.36,104.03 31.89,-3.09 12.37,-0.01 24.14,-8.66 -67.79,-33.34 -133.19,-76.13 -212.52,-112.55 -239.31,-109.87 -461.64,-186.08 -725.72,-244.69 -284.3,-63.1 -882.51,-156.57 -1162.51,-126.76 -144.26,286.39 -337.28,494.23 -611.49,677.32 -631.35,421.57 -1512.84,609.47 -1998.85,897.77l-190.5 127.95c-16.38,13.66 -24.69,26.74 -38.82,40.5 -88.01,85.67 -193.98,190.26 -228.72,325.23z"/>
  <path class="fil8" d="M7868.49 7060.65l122.55 -13.16 -49.78 -9.72c8.25,-1.2 26.73,-0.91 35.87,-1.17 -20.36,-1.22 -8.68,4.11 -11.82,-17.6l2.01 -284.08c71.86,-0.29 444.77,-7.38 476.74,9.69l6.77 288.81 197.29 -0.3 -11.23 -400.07c-51.38,-19.59 -796.01,-33.81 -868.75,-19.14l-0.85 431.63 71.01 1.55c33.69,7.44 10.11,-4.78 30.19,13.57z"/>
  <path class="fil6" d="M2060.96 8203.16c41.72,39.71 83.34,-7.68 162.58,-43.41 123.32,-55.61 195.38,-97.26 331.84,-145.6 37.42,-13.26 54.05,-11.28 88.04,-31.32 30.46,-17.95 51.1,-28.3 93.36,-33.96 41.97,-5.61 57.75,-11.39 93.66,-25.7 125.9,-50.19 135.16,-28.97 195.44,-43.28l186.36 -52.36c34.13,-10.83 74.44,-2.84 113.63,-5.73 36.21,-2.68 68.39,-13.62 96.53,-22.84 45.36,-14.86 67.12,-4.13 117.76,-9.55 38.37,-4.11 60.45,-19.26 91.89,-27.47 34.77,-9.08 304.52,-2.73 354.93,-3.15 93.63,-0.78 117.15,-55.85 181.18,9.11 25.58,25.95 28.03,40.73 51.03,68.33l98.89 147.79c29.56,56.1 305.06,329.18 363.48,360.64 64.31,34.63 37.33,31.36 72.25,55.07l303.55 173.89c120.88,85.29 158.7,66.67 283.55,138.19l123.49 59.53c54.14,21.39 117.57,41.32 167.84,70.88 44.67,26.26 147.62,39.52 264.52,101.52l355.55 129.85c33.08,13.3 54.09,26.11 81.75,37.61 27.1,11.27 62.15,19.44 88.89,30.47 37.35,15.4 39.11,26.12 81.38,37.98 37.61,10.55 56.28,15.37 89.04,30.32l79.42 39.95c30.66,16.94 58.84,26.2 83.22,44.1 131.59,96.63 157.6,90.4 276.3,209.1 53.14,53.14 123.34,129.05 160.89,197.19 26.61,48.28 -5.07,70 55.57,71.37 -17.44,-72.16 -79.49,-168.23 -115.11,-210.79 -56.16,-67.1 -52.88,-69.49 -117.87,-120.9 -97.27,-76.95 -79.83,-80.34 -236.64,-169.15 -416.33,-235.79 -1093.69,-410.57 -1581.62,-662.32 -142.43,-73.49 -289.13,-144.88 -411.53,-232.96 -162.37,-116.84 -145.77,-107.43 -268.58,-216.91l-154.03 -164.33c-53.45,-69.47 -165.11,-212.78 -182.71,-293.18 -603.8,3.28 -1362.77,118.13 -1909.24,387.07l-210.51 114.96z"/>
  <path class="fil0" d="M10252.37 4290.66c37.43,10.41 292.93,13.5 322.61,-2.29 56.28,-29.94 23.85,-226.16 22.77,-301.82 -4.27,-300.12 -4.16,-321.77 -371.96,-301.34l26.57 605.45z"/>
  <path class="fil9" d="M3955.44 2803.27c-34.16,7.88 -39.3,0.89 -75.16,-3.11l57.92 28.11 -13.82 18.7c-1.05,1.13 -3.06,3.12 -4.11,4.22 -1.19,1.23 -3.69,3.62 -4.73,4.68 -1.11,1.12 -3.53,3.16 -5.1,4.94l42.83 -6.28 528.8 -0.22c-1.97,-0.98 -5.12,-3.99 -6.27,-2.05 -1.17,1.97 -4.78,-1.53 -6.43,-1.86l-114.99 -17.59c7.7,-22.59 88.69,-74.27 112.46,-92.44 23.72,-18.13 33.7,-25.56 55.27,-48.35 102.68,-108.51 132.91,-149.81 221.63,-303.4 54.28,-93.99 85.55,-203.27 94.14,-319.54 5.29,-71.72 -14.28,-112.42 -40.46,-166.18 -20.05,-41.18 -77.51,-96.82 -87.39,-128.41 1.18,-0.58 3.42,-2.11 3.84,-0.96l20.97 -10.53c-24.55,-15.38 -65.71,-43.48 -91.85,-48.14 10.52,37.28 38.91,75.29 59.49,169.01 10.08,45.9 8.81,179.99 -2.95,223.02 -57.39,210.04 -148.15,299.67 -283.93,430.91 -76.74,74.17 -251.86,184.89 -353.03,243.24 -55.89,32.23 -51.59,9.92 -107.1,22.22z"/>
  <path class="fil10" d="M9117.21 1145.82c54.99,16.87 202.67,183.18 242.68,282.71 21.44,53.33 27.95,165.94 26.86,234.89 -1.23,78.05 -30.88,144.52 -66.87,199.95 -65.7,101.2 -189.78,194.71 -221.49,313.75 -42.22,158.5 28.45,305.07 132.17,379.37 8.63,-13.11 11.22,1.98 0.04,-26.88 -1.77,-15.94 -71.4,-108.83 -64.97,-214.05 15.07,-246.34 266.07,-313.73 353.87,-514.3 110.55,-252.52 14.46,-446.55 -158.14,-611.21 -33.55,-32 -122.19,-115.06 -167.13,-121.4l-28.77 5.59c-10.08,23.67 -0.44,8.38 -0.54,46.31 -29.3,-10.13 -2.17,-3.58 -16.87,-11.65 -17.87,-9.81 10.48,-6.12 -10.82,-4.3l-30.17 21.51c10.7,4.18 6.77,-10.41 10.14,19.7z"/>
  <path class="fil4" d="M1543.73 5401.66c36.68,-49.82 282.9,-692.92 311.7,-806.21l-491.46 23.09c2.98,58.74 167.63,762.13 179.76,783.12z"/>
  <path class="fil11" d="M5272.76 2539.42c-12.05,42.69 -4.61,10.75 4.13,23.24 41.67,-43.53 64.12,-41.7 112.98,-134.05 18.04,-34.09 51.95,-149.18 46.85,-200.7 -20.72,-209.25 -370.35,-339.03 -307.81,-672.91 31.03,-165.66 69.37,-234.26 168.74,-325.54 13.8,-25.2 8.14,-15.09 27.1,-35.26 19.52,-20.77 10.52,-6.25 23.58,-33.89 -32.78,-1.29 -20.53,-1.43 -50.1,-13.79l-20.79 -8.63c1.96,-1.78 6.07,-6.33 7.4,-7.69l23.7 -23.17c-12.53,-6.54 17,-10.27 -26.7,-6.03 -33.21,4.03 -134.95,94.11 -156.52,117.17 -162.49,173.73 -227.24,365.14 -114.16,606.26 92.25,196.7 338.4,255.77 334.4,507.19 -2.33,146.45 -53.38,151.07 -72.8,207.77z"/>
  <path class="fil6" d="M14514.27 6658.28c0,-149.57 -10.67,-70.02 -49.37,-211.17 -9.48,-34.57 -21.17,-59.02 -33.47,-101.8l-34.22 -101.05c-12,-31.76 -28.82,-59.39 -42.23,-93.04 -13.01,-32.66 -20,-65.89 -34.06,-101.21 -15.66,-39.34 -15.02,-64.1 -35.83,-99.45 -26.2,-44.49 -94.83,-255.25 -106.59,-299.23 -31.59,-118.12 -83,-120.5 -132.58,-137.98 -179.18,-63.16 -146.84,-6.11 -224.52,-46.03 -43.05,-22.13 -44.79,-26.89 -55.89,-79.38 -8.3,-39.25 -31.73,-69.64 -15.13,-104.23 57.01,-27.35 124.31,14.72 173.29,-9.52 49,-24.25 41.65,-94.89 41.56,-165.54 -0.14,-117.01 15.55,-191.41 -21.83,-288.52 -26.51,-68.89 3.7,-306.27 -14.36,-391.47 -7.06,-33.33 -21.29,-56.67 -25.53,-77.91 -15.32,-76.75 13.45,-211.4 -13.38,-297.19 -20.17,-64.52 0.05,-87.38 47.79,-173.78l34.74 -68.7c31.86,-60.86 64.43,-162.26 109.82,-256.22 47.6,-98.54 27.02,-74.4 58.72,-148.17l100.43 -201.95c22.79,-47.3 52.09,-89.3 65.79,-141.11 25.49,-96.4 92.86,-163.39 63.64,-232.7 -25.09,29.87 -127.61,266.01 -151.15,320.29 -98.03,226.07 -222.16,510.2 -330.09,728.4 -20.47,41.39 -17.41,43.02 -68.79,50.99 -68.83,10.68 -136.68,19.55 -204.78,32.84l9.31 76.48 235.43 -23.24c-0.28,194.35 23.54,421.04 41.28,614.48 18.74,204.37 30.01,415.36 43.38,621.85l-241.37 -33.87c4.57,70.78 11.56,202.12 35.48,259.15 100.08,31.6 260.82,42.15 371.88,72.15 7.15,54.25 382.05,1077.88 402.65,1107.85z"/>
  <path class="fil6" d="M12457.02 8172.24c20.01,-59.07 -13.91,-122.03 -43.62,-206.77 -12.11,-34.55 -11.34,-71.95 -25.8,-109.47 -42.15,-109.31 -65.25,-208.96 -106.07,-315.67 -8.46,-22.11 -9.27,-32.71 -16.25,-55.36l-55.36 -159.48c-13.05,-45.3 -20.97,-57.95 -29.4,-105.87 -13.1,-74.48 -80.28,-243.5 -101.19,-320.55 -5.57,-20.53 -10.07,-30.61 -16.04,-47.62 -7.44,-21.23 -7.52,-32.17 -12.3,-59.32 -8.07,-45.83 -23.12,-71.02 -33.61,-109.62 -13.63,-50.18 -76.86,-193.69 -49.45,-221.1 59.16,-28.39 114.48,9.14 163.5,19.52 36.69,7.77 62.63,1.2 99.04,4.41 30.97,2.72 47.76,15.99 79.21,24.24 34.13,8.95 48,4 87.11,8.38 64.4,7.22 10.12,24.21 176.1,30.79 42.45,1.68 51.83,13.8 81.37,22.08 91.5,25.64 66.92,-10.67 172.12,26.82 29.06,10.36 47.83,13.55 88.6,14.84 48.32,1.54 43.24,8.96 82.56,20.89l158.99 39.95c31.6,9.74 43.77,19.02 76.27,27.18 59.38,14.91 75.69,10.75 158.44,40.5l153.9 52.99c98.79,27.09 98.83,44.56 140.38,58.55 146.86,49.45 61.74,22.54 147.55,59.34 27.14,11.63 50.42,13.07 78.84,24.6 130.29,52.9 158.49,-24.07 299,-70.27 114.67,-37.7 70.64,-30.81 147.46,-59.42l155.93 -50.96 0 -43.83c-100.82,30.82 -205.04,76.31 -303.81,113.92 -50.3,19.15 -97.57,38.66 -148.76,58.1 -79.77,30.3 -73.33,51.63 -153.12,16.08 -626.57,-279.14 -1013.66,-325.63 -1661.56,-446.92 -114.07,-21.35 -245.38,-51.74 -355.26,-67.92 34.52,150.39 216.32,711.16 273.75,896.95 92.62,299.68 194.2,594.39 291.51,890.03z"/>
  <path class="fil6" d="M-0 6712.22c7.25,33.55 14.26,33.23 42.01,49.37 69.19,40.25 103.82,41.24 187.6,74.96l125.48 49.58c58.33,17.82 76.86,21.58 125.68,49.39 84.99,48.41 119.44,7.59 195.63,-12.57 33.58,-8.88 34.69,-9.28 62.13,-25.4 18.87,-11.08 37.68,-18.64 60.42,-27.11 25.84,-9.62 44.03,-11.06 67.55,-19.98 24.27,-9.2 32.5,-19.34 57.46,-30.07 67.85,-29.17 202.76,-71.37 274.29,-83.8l133.51 -41.55c36.67,-11.61 25.11,-13.56 68.18,-19.36 64.55,-8.68 169.19,-54.74 201.44,-61.15 27.59,-5.48 57.16,-0.15 85.35,-2.18 24.01,-1.73 50.05,-9.21 70.61,-16.92l215.75 -46.85c121.8,-2.26 54.86,5.42 157.06,-25.96 24.8,-7.61 58.02,-4.75 144.32,-30.74 45,-13.55 106.48,-1.04 159.19,-15.88 170.41,-47.96 175.97,-78.08 123.6,91.77 -18.98,61.54 -46.04,131.09 -60.62,201.98l-63.3 199.29c-20.77,75.75 -18.65,24 -39.27,143.75 -4.24,24.66 -14.45,42.37 -21.13,66.41l-196.1 599.64c-31,176.18 -123.83,273.28 -123.83,406.95 48.71,-60.26 426.89,-1297.36 505.95,-1560.87 21.06,-70.19 56.35,-165.2 69.21,-235.08 -848.17,165.26 -1189.62,179.06 -2013.84,510.85 -74.48,29.98 -73.27,18.21 -150.26,-12.15 -113.65,-44.81 -375.8,-154.76 -464.06,-176.31z"/>
  <path class="fil6" d="M5845.45 7044.05c-14.64,-56.87 -6.87,-234.16 -7.28,-312.1l7.24 -108.26c29.89,-4.24 66.28,-2.67 98.79,-2.66 114.93,0.05 94.11,-41.9 94.97,325.82l-5.98 92.63c-4.31,8.98 16.28,5.87 -24.4,7.25l-163.35 -2.67zm-36.57 20.43l261.71 -5.42 -0.06 -860.85 -260.99 -2.16 -0.66 868.43z"/>
  <path class="fil8" d="M4599.41 6644.46l0.17 425.45 185.23 6.21 1.46 -315.03c61.17,-33.2 403.25,-9.46 453.77,-32.86 13.16,-27.63 7.98,-80.12 5.73,-118.74 -108.99,-24.09 -513.27,49.58 -646.36,34.96z"/>
  <path class="fil10" d="M8547.21 1491.7c37.15,164.69 -110.3,344.65 -203.01,470.42 -51.18,69.42 -79.14,147.73 -96.48,248.41 -10.67,61.91 -22.68,252.85 52.39,290.58 -0.58,-465.3 175.2,-395.44 324.15,-745.41 63.3,-148.74 37.03,-154.93 30.36,-309.94 4.4,-54.12 -64.48,-215.65 -91.97,-242.21 -5.54,37.24 -3.08,108.01 -3.64,149.29 -0.51,37.03 -13,123.71 -11.79,138.87z"/>
  <path class="fil12" d="M5836.05 1605.77l34.85 112.64c119.47,324.83 303.7,318.78 349.47,684.57l10.27 34.98c19.73,-10.06 10.17,-2.78 17.88,-26.33 59.14,-180.55 -7.52,-334.83 -109.95,-481.65 -89.21,-127.87 -216.89,-287.38 -180.78,-477l8.67 -250.22c-25.23,21.35 -71.48,125.05 -88.56,171.64 -24.5,66.82 -37.18,152.76 -41.84,231.37z"/>
  <path class="fil13" d="M5587.25 4774.06c83.89,34.24 166.55,85.66 237.15,125.25 2,-54.73 -110.99,-845.46 -118.96,-859.63 -2.74,5.12 -111.3,676.55 -118.19,734.38z"/>
  <path class="fil5" d="M9705.85 8008.82c-34.04,50.59 -70.66,110.01 -105.78,151.2 -28.04,32.89 -104.72,103.86 -114.87,138.19 132.71,-64.56 337.3,-221.12 438.98,-323.64 95.53,-96.32 266.78,-330.87 295.77,-462.27 56.69,-21.47 181.94,-12.58 253.56,-17.33 -98.34,-0.38 -178.2,-18.28 -279.53,-13.59 -8.71,24.58 -15.1,39.9 -24.44,65.95 -25.06,-1.73 -29.73,-1.11 -35.92,-23.52 -62.01,3.96 -85.34,68.58 -119.21,144.08 -38,84.7 -139.56,214.22 -203.24,297.47l-10.35 12.78c-4.76,5.65 -9.94,11.54 -15.05,16.92 -10.16,10.7 -21.96,20.76 -31.88,32.67 -29.67,35.59 -20.11,43.44 -63.03,61.01 18.21,-61.23 60.44,-70.95 14.98,-79.93z"/>
  <path class="fil14" d="M-0 6634c25.79,-34.09 186.45,-488.96 250.66,-622.26 48.25,-100.16 67.65,-93.81 77.07,-218.99 26.72,-355.12 54.74,-722.53 92.64,-1074.82 38.01,-353.28 66.53,-724.22 91.74,-1079.85 3.41,-48.14 -257.2,-630 -322.29,-764.19 -4.2,-8.65 -7.8,-16.93 -13.22,-26.44l-17.45 -25.55c-19.86,50.28 20.49,103.23 47.2,154.72 47.92,92.38 61.62,149.31 107.33,250.75 38.26,84.92 54.3,81.21 87.38,199.09 17.37,61.92 83.15,137.32 84.81,209.62 1.72,75.08 7.86,211.38 -15.13,272.25 -27.14,71.86 -16.17,181.81 -16.79,277.64 -0.59,91.28 -32.25,49.35 -32.2,254.26 0.07,282.97 -18.73,150.86 -30.96,263.46 -14.88,136.95 22.27,139.96 -19.78,266.69 -24.72,74.48 -13.33,190.09 -12.72,281.7 0.78,117.8 -32.15,46.19 -32.03,254.44 0.03,47.8 0.68,95.94 0.43,143.66 -0.32,61.78 -19.48,67.38 -29.27,121.92 -13.52,75.29 17.8,84.57 -36.33,178.52l-47.36 95.87c-10.18,23.46 -14.54,24.5 -25.12,46.49 -11.94,24.81 -13.35,54.59 -63.66,159.15 -9.43,19.6 -10.25,31.81 -16.8,54.81 -12.56,44.07 -26.78,66.44 -44.11,99.12 -14.75,27.81 -22.06,71.39 -36.57,106.66 -25.78,62.68 -27.41,32.3 -27.45,117.15l0 4.13z"/>
  <path class="fil15" d="M6008.8 7046.72c40.68,-1.37 20.08,1.73 24.4,-7.25l5.98 -92.63c-0.86,-367.72 19.96,-325.77 -94.97,-325.82 -32.52,-0.01 -68.9,-1.58 -98.79,2.66l-7.24 108.26c0.42,77.94 -7.36,255.23 7.28,312.1l163.35 2.67z"/>
  <path class="fil16" d="M6846.34 2091.43c68.49,-36.28 372.68,-260.45 404.49,-266.27 41.9,-7.66 176.23,103.3 210.41,127.02 65.96,45.77 133.34,90.45 197.63,131.28 -42.64,-37.51 -68.51,-85.66 -105.35,-119.77l-53.49 -57.92c-91.74,-94.64 -192.07,-258.73 -242.9,-316.06 -29.1,17.75 -174.53,238.54 -196.69,267.03 -97.39,125.22 -122.62,133.02 -214.11,234.67z"/>
  <path class="fil17" d="M12742.43 1838.16c-51.81,3.78 -165.62,57.9 -212.97,84.1l-196.02 98.4c-81.57,42.78 -176.42,68.43 -264.37,101.67l-97.74 45.49c-89.63,50.02 -192.93,61.31 -269.43,104.57 -33.07,18.7 -64.24,26.87 -104.71,38.52 -24.75,7.12 -33.95,12.99 -52.1,19.52l-517.26 159.12c-104.22,17.94 -51.09,12.82 -114.07,29.16 -64.12,16.64 -16.35,-2.62 -121.01,30.17 -38.63,12.1 -78.23,2.87 -124.89,18.35 -78.96,26.19 -134.58,38.37 -221.58,-35.01l-182.62 -119.76 -147.99 -146.44c-47.45,-47.63 -140.77,-238.92 -118.77,-305.35 32.38,-97.75 17.3,-71.24 60.69,-154.9 11.43,-22.03 11.39,-31.11 25.77,-53.81 9.59,-15.14 18.81,-28.03 29.35,-42.26l60.58 -90.63c20.34,-27.16 20.12,-14.85 20.12,-58.83 -89.52,57.42 -203.35,245.05 -227.26,368.16 -28.73,147.94 91.67,327.7 182.19,416.32 78.32,76.67 234.49,187.41 353.12,251.83 59.14,32.11 182.85,-11.57 249.13,-26.41 545.01,-122.02 1075.9,-313.01 1580.2,-536.23 76.34,-33.79 370,-159.54 411.66,-195.76z"/>
  <path class="fil18" d="M9378.38 7054.51c34.93,14.17 134.51,7.22 182.09,6.02 15.31,-54.49 5.4,-340.74 0.79,-412.59l-184.71 -4.21c-2.88,69.6 -9.55,363.45 1.83,410.78z"/>
  <path class="fil19" d="M5281.84 1101.02c43.71,-4.24 14.17,-0.51 26.7,6.03l-23.7 23.17c-1.33,1.36 -5.45,5.91 -7.4,7.69l20.79 8.63c29.57,12.36 17.32,12.51 50.1,13.79 -13.06,27.63 -4.05,13.12 -23.58,33.89 -18.96,20.17 -13.3,10.06 -27.1,35.26 22.52,-16.6 37.92,-28.11 56.01,-44.78l272.48 -213.79c22.67,-21.43 64.71,-81.53 80.21,-118.98 3.75,3.34 45.92,-2.78 5.27,74.92 -13.12,25.07 -19.94,40.27 -32.42,64.75 -10.85,21.28 -22.46,43.52 -33.34,62.37 -13.09,22.66 -39.53,41.4 -19.01,55.53 45.12,-40.61 97.78,-155.78 121.2,-231.17 17.61,-56.7 29.84,-277.14 5.14,-326.23 -11.31,14.74 -24.01,68.91 -33.5,90.59 -69.17,157.96 -155.19,246.19 -289.74,347.32l-148.11 111.02z"/>
  <path class="fil14" d="M4316.54 2387.22c-71.97,15.69 -107.43,81.03 -168.25,113.89 -61.58,33.28 -45.17,33.85 -80.19,55.08 -109.71,66.53 -194.39,11.61 -288.14,-2.07l-711.68 -203.42c-21.4,-8.19 -26.42,-7.96 -49.16,-14.5 -24.75,-7.12 -33.95,-12.99 -52.1,-19.52l-210.11 -76.35c-22.62,-7.84 -27.51,-13.66 -50.31,-21.3 -40.2,-13.47 -50.53,-10.82 -101.26,-34.01 -63.86,-29.19 2.69,-9.68 -101.7,-41.53l-141.79 -65.1c-40.67,-23.68 -59.75,-21.52 -104.44,-38.79 -40.77,-15.75 -55.31,-27.57 -91.86,-43.42l-143.77 -71.08c-73.61,-36.58 -111.52,-37.15 -149.55,-65.3l-315.9 -169.5c-93.54,-51.52 -126.68,-50.22 -226.19,-123.93 -37.48,-27.76 -147.56,-86.29 -197.33,-86.29 47.48,50.72 625.95,346.6 728.87,398.18 247.09,123.84 523.42,240.01 793.48,344.52 234.37,90.7 1049.07,368.33 1308.24,388.16 64.73,4.95 245.46,-137.69 314.57,-186.78 24.49,-17.39 24.19,-11.2 38.59,-36.93z"/>
  <path class="fil6" d="M13609.04 2840.79c-67.3,0 -442.58,-5.9 -490.92,4.35 -82.18,17.42 -215.81,100.87 -98.64,-154.34l178.96 -505.37c10.63,-34.27 17.97,-45.14 28.35,-83.05 17.01,-62.12 63.38,-135.22 93.86,-248.3 25.04,-92.88 90.86,-235.75 94.29,-247.98 4.61,-16.47 9.02,-31.18 8.98,-46.78 -0.05,-24.96 -4.54,-31.66 -15.74,-46.29 -11.45,16.46 -484.29,1293.74 -503.12,1369.73 101.38,-1.8 650.28,-20.95 703.97,-41.97z"/>
  <path class="fil20" d="M8795.06 954.85c37.96,-23.21 7.61,7.72 13.73,-22.71 6.79,-33.82 -13.46,-15.21 -15.83,-88.61 28.92,17.22 20.62,7.5 41.11,47.51 7.68,15.01 16.75,28.86 30.63,48.25 26.51,37.02 208.86,183 252.52,206.54 -3.37,-30.12 0.57,-15.52 -10.14,-19.7l30.17 -21.51c21.3,-1.82 -7.05,-5.51 10.82,4.3 14.7,8.07 -12.43,1.51 16.87,11.65 0.1,-37.93 -9.55,-22.64 0.54,-46.31l28.77 -5.59c-13.96,-21.32 -107,-85.86 -136.34,-108.01 -218.27,-164.84 -269.57,-388.26 -305.29,-419.52 -25.42,185.66 29,303.27 42.45,413.72z"/>
  <path class="fil17" d="M175.06 2804.85c235.83,17.24 474.12,24.78 709.41,41.15 139.7,9.72 605.79,39.01 720.91,32.56l-494.86 -1382.57c-45.01,46.91 14.37,131.2 28.73,165.76 11.18,26.92 16.59,52.49 28.2,83.21 35.74,94.56 24.43,24.01 61.33,169.43 7.6,29.95 21.51,57.61 33.05,86.31l87.66 254.51c13.39,46.82 10.22,41.77 31.69,79.72 11.73,20.73 24.78,54.33 31.98,79.43l57.89 172.87c13.43,37.39 11.21,53.82 31.34,88.02 19.76,33.56 56.2,125.45 57.27,173.49 -67.51,45.21 -80.94,19.45 -144.54,1.31 -59.4,-16.94 -374.93,-9.35 -468.5,-8.94 -53.13,0.23 -45.45,-1.76 -80.49,-15 -135.59,-51.2 -436.89,10.18 -542.2,-30.73 -53.28,-20.7 -108.75,-26.25 -148.85,9.46z"/>
  <path class="fil21" d="M4326.46 7585.96c14.85,52.58 100.91,182.57 129.82,219.71 56.77,72.93 100.64,131.3 161.65,188.85 72.95,68.81 309.62,276.8 406.45,293.25l-37.26 -49.88c-65,-63.44 -184.73,-214.31 -216.38,-287.6 -5.39,4.91 -16.61,5.27 -3.68,37.71 4.87,12.21 13.78,24.04 21.4,34.98 20.34,29.2 34.15,34.74 34.25,77.92 -32.23,-19.91 -78.76,-67.96 -103.81,-95.98l-33.3 -37.87c-50.3,-65.45 -107.33,-132.45 -146.7,-204.4 -7.61,-13.91 -8.02,-14.57 -18.42,-28.96 -8.6,-11.9 -9.14,-10.57 -16.65,-22.93 -22.99,2.73 -66.94,-11.54 -31.83,23.87l-67.09 -91.8c-14.92,-16.97 -26.42,-19.62 -38.06,-39.44l-22.17 -51.78c-25.35,20.2 -30.21,-30.33 -18.23,34.36z"/>
  <path class="fil4" d="M7484.81 1485.51l192.13 471.43 -47.59 -252.27c-30.66,-130.87 -36.14,-119.48 60.46,-197.86 30.57,-24.81 51.25,-47.53 80.39,-70.8l248.55 -207.62c-122.48,36.57 -473.06,239.02 -533.93,257.12z"/>
  <path class="fil22" d="M6853.16 1907.63c26.31,-63.97 144.13,-379.5 153.47,-435.52 -42.26,-33.97 -197.48,-98.12 -253.43,-125.4 -41.33,-20.15 -79.79,-41.77 -120.78,-62.22 -41.25,-20.58 -89.48,-37.29 -128.39,-55.49l385.36 324.43c40.05,34.78 12.52,63.81 6.11,114.24l-42.34 239.96z"/>
  <path class="fil17" d="M9842.04 1543.73c-43.03,1.02 -42.21,14.93 -86.29,15.92 -54.99,-82.13 18.48,-38.33 -65.76,-212.74 -16.87,-34.93 -26.79,-56.71 -43.5,-91.77l-55.61 -87.62c-61.73,-62.83 -56.4,-76.11 -100.89,-106 -45.74,-30.73 -74.37,-78.34 -111.48,-103.37 -16.28,-10.98 -29.5,-15.01 -46.24,-25.38l-123.35 -83.54 -207.92 -213.83c-36.47,-57.05 -59.52,-135.55 -82.03,-196.47 -36.57,-98.99 10.7,-201.87 -41.38,-247.95 -24.42,168.07 20.23,335.18 99,452.84 60.67,90.62 132.66,149.54 213.77,216 112.16,91.9 280.84,173.59 383.27,324.98 60.05,88.74 164.21,278.1 138.15,419.48 1.96,-0.36 120.21,-53.68 130.26,-60.55z"/>
  <path class="fil14" d="M8654.88 485.4l-8.03 10.9c-53.11,95.49 -44.93,182.37 -44.91,291.48 0.02,186.11 11.04,175.08 -175.06,175.06 -105.29,-0.01 -646.37,11.46 -693.91,-6.34 -40.64,-15.22 -65.62,-57.58 -76.38,-98.69 -17.94,-68.54 -147.55,-342.73 -155.71,-369.48 -34.02,-111.49 -21.06,-50.21 -50.65,-124.41 -10.97,-27.51 -12.4,-34.94 -21.21,-66.32 -10.32,-36.77 -15.01,-34.66 -28.15,-59.39 -50.53,-95.12 -49.16,-231.22 -115.98,-238.22 19.9,74.14 60.1,166.75 88.74,241.61 104.1,272.13 190.34,464.26 298.73,727.92l956.09 -0.33c-0.85,-208.16 -27.75,-271.15 26.43,-483.79z"/>
  <path class="fil17" d="M5696.43 222.81c15.82,24.33 35.21,40.98 56.59,63.82 99.73,106.57 150,300.33 150.5,453.4 0.52,159.58 0.78,96.93 -15.16,229.69l963.24 -0.59 381.12 -953.2c-13.44,10.32 -30.85,40.28 -38.97,55.98 -13.11,25.36 -15.06,49.44 -25.21,78.24 -7.18,20.38 -17.95,45.63 -29.05,66.44 -15.22,28.55 -18.59,39.34 -28.96,74.49l-50.97 147.97c-13.73,33.3 -23.61,36.89 -34.43,69.02 -9.04,26.86 -12.94,49.05 -24.76,78.69l-96.25 198.17c-13.9,28.93 -14.2,47.52 -26.41,77.04 -54.28,131.32 -129.89,100.89 -304.93,100.89 -61.38,0 -556.82,8.57 -591.87,-4.94 -79.77,-30.73 -0.29,-175.53 -60.95,-344.88 -21.88,-61.09 3.45,-98.45 -37.91,-168.99 -23.17,-39.51 -42.23,-95.18 -71.07,-127.87 -15.07,-17.09 -34.86,-35.91 -51.74,-51.7 -16.73,-15.65 -39.81,-35.9 -62.84,-41.67z"/>
  <path class="fil17" d="M4328.82 2375.17c63.29,-54.94 95.72,-87.86 145.08,-161.15 42.43,-63 77.41,-141.27 79.96,-232.54 4.86,-174.13 -125.29,-333.5 -206.17,-413.87 -53.07,62.32 180.64,178.68 180.36,397.58 -0.08,67.47 4.78,85.52 -17.02,134.76 -61.14,138.08 -145.6,203.34 -182.21,275.22z"/>
  <path class="fil23" d="M4816.72 1462.92c63.33,-189.99 116.03,-299.12 264.58,-423.85 49.95,-41.94 229.35,-151.79 253.86,-175.87 -48.54,1.24 -90.22,52.41 -131.26,75.52l-126.99 79.91c-52.14,31.82 -132.38,129.02 -165.83,184.29l-72.72 142.13c-14.79,27.58 -27.32,74.06 -21.63,117.87z"/>
  <path class="fil23" d="M4352.69 1537.48c279.05,-57.84 407.99,61.25 451.32,69.16l12.71 -143.71c-12.02,12.18 -4.03,-0.68 -14.95,20.44l-27.34 68.33c-82.12,-1.83 -120.46,-44.27 -198.79,-47.89 -70.65,-3.26 -195.11,-13.66 -222.95,33.68z"/>
  <path class="fil23" d="M5335.15 863.21c83.83,-71.18 18.99,-6.72 118.34,-104.54 46.8,-46.08 67.97,-56.87 107.59,-123.23 62.97,-105.46 89.34,-232.3 87.88,-372.85 -15.29,26.77 1.99,48.76 -14.82,95.8 -55.49,155.28 -16.77,211.16 -189.3,383.63 -20.5,20.5 -35.18,35.22 -55.7,55.7 -23.47,23.41 -46.67,39.43 -53.99,65.48z"/>
  <path class="fil23" d="M9867.16 1539.8c113.81,-19.96 197.59,-21.74 310.34,1.33 -51.51,-60.58 -260.7,-40.13 -296.84,-15.29 -15.21,10.46 -1.63,-0.72 -13.5,13.96z"/>
  <path class="fil14" d="M8665.59 447.56c13.5,-18.98 22.37,-44.5 37.3,-68.09 70.83,-111.88 135.48,-162.44 149.39,-188.49 -32.22,7.01 -7.67,-2.61 -34.81,16.87 -44.97,32.27 -53.29,44.07 -77.61,89.22 -32.24,59.85 -67.62,62.43 -74.27,150.49z"/>
 </g>
</svg>
